<svg class="animated" id="freepik_stories-online-resume" xmlns="http://www.w3.org/2000/svg" viewBox="0 0 500 500" version="1.1" xmlns:xlink="http://www.w3.org/1999/xlink" xmlns:svgjs="http://svgjs.com/svgjs"><style>svg#freepik_stories-online-resume:not(.animated) .animable {opacity: 0;}svg#freepik_stories-online-resume.animated #freepik--Device--inject-53 {animation: 1.5s Infinite  linear floating;animation-delay: 0s;}svg#freepik_stories-online-resume.animated #freepik--character-2--inject-53 {animation: 1.5s Infinite  linear floating;animation-delay: 0s;}            @keyframes floating {                0% {                    opacity: 1;                    transform: translateY(0px);                }                50% {                    transform: translateY(-10px);                }                100% {                    opacity: 1;                    transform: translateY(0px);                }            }        </style><g id="freepik--background-complete--inject-53" class="animable" style="transform-origin: 249.065px 244.153px;"><polygon points="51.43 429.36 227.16 429.36 230.82 357.25 47.77 357.25 51.43 429.36" style="fill: rgb(235, 235, 235); transform-origin: 139.295px 393.305px;" id="eliahiog9siys" class="animable"></polygon><path d="M218.83,390.26H145.36l-1.37-25h76.45Zm-72.63-.89H218l1.5-23.26H144.92Z" style="fill: rgb(219, 219, 219); transform-origin: 182.215px 377.76px;" id="el4x4ijcqitk" class="animable"></path><path d="M217.48,419.06H148.24l-1.12-22.6h71.77Zm-68.39-.89h67.56l1.3-20.82h-69.9Z" style="fill: rgb(219, 219, 219); transform-origin: 183.005px 407.76px;" id="elpym3kjnz1sa" class="animable"></path><path d="M189.17,380.45H176.83l-.78-6H190Zm-11.56-.88h10.78l.55-4.27H177.06Z" style="fill: rgb(219, 219, 219); transform-origin: 183.025px 377.45px;" id="elu8zno2tjd09" class="animable"></path><path d="M189.17,410.78H176.83l-.78-6H190Zm-11.56-.89h10.78l.55-4.26H177.06Z" style="fill: rgb(219, 219, 219); transform-origin: 183.025px 407.78px;" id="el0n7f7dea03nn" class="animable"></path><path d="M132.42,390.26H59l-1.38-25H134Zm-72.63-.89h71.79l1.5-23.26H58.5Z" style="fill: rgb(219, 219, 219); transform-origin: 95.81px 377.76px;" id="elorzkbl9y19" class="animable"></path><path d="M131.06,419.06H61.82l-1.12-22.6h71.77Zm-68.39-.89h67.56l1.3-20.82H61.63Z" style="fill: rgb(219, 219, 219); transform-origin: 96.585px 407.76px;" id="elam4m615wssg" class="animable"></path><path d="M102.75,380.45H90.41l-.78-6h13.9Zm-11.56-.88H102l.55-4.27H90.64Z" style="fill: rgb(219, 219, 219); transform-origin: 96.58px 377.45px;" id="eli1yhk3iv8wh" class="animable"></path><path d="M102.75,410.78H90.41l-.78-6h13.9Zm-11.56-.89H102l.55-4.26H90.64Z" style="fill: rgb(219, 219, 219); transform-origin: 96.58px 407.78px;" id="elp2fj2oxhmw" class="animable"></path><polygon points="67.19 429.36 66.08 437.21 63.87 453 59.53 453 59.53 429.36 67.19 429.36" style="fill: rgb(235, 235, 235); transform-origin: 63.36px 441.18px;" id="elaal82hedkh" class="animable"></polygon><polygon points="67.19 429.36 66.08 437.21 59.53 437.21 59.53 429.36 67.19 429.36" style="fill: rgb(219, 219, 219); transform-origin: 63.36px 433.285px;" id="elnvrcssshaaj" class="animable"></polygon><polygon points="211.4 429.36 212.51 437.21 214.73 453 219.07 453 219.07 429.36 211.4 429.36" style="fill: rgb(235, 235, 235); transform-origin: 215.235px 441.18px;" id="elztedrx5tyik" class="animable"></polygon><polygon points="211.4 429.36 212.51 437.21 219.07 437.21 219.07 429.36 211.4 429.36" style="fill: rgb(219, 219, 219); transform-origin: 215.235px 433.285px;" id="elwdcokexn6ri" class="animable"></polygon><path d="M89.22,89A15.58,15.58,0,1,1,70.44,77.46,15.58,15.58,0,0,1,89.22,89Z" style="fill: rgb(235, 235, 235); transform-origin: 74.0646px 92.6125px;" id="elgc3pxk6suvf" class="animable"></path><path d="M69,91.51A4.9,4.9,0,1,0,72.6,85.6,4.9,4.9,0,0,0,69,91.51Z" style="fill: rgb(255, 255, 255); transform-origin: 73.7631px 90.36px;" id="el2dlwmzrffw3" class="animable"></path><path d="M68.66,105.49l.47,2a15.73,15.73,0,0,0,5,.8,16,16,0,0,0,11.5-4.76l-.47-2a8.47,8.47,0,0,0-16.47,3.95Z" style="fill: rgb(255, 255, 255); transform-origin: 77.061px 101.74px;" id="el2bjrf00gool" class="animable"></path><g id="elesnjh72iln"><rect x="93.95" y="72.3" width="48.42" height="0.89" style="fill: rgb(235, 235, 235); transform-origin: 118.16px 72.745px; transform: rotate(-13.49deg);" class="animable"></rect></g><g id="elc5cxc5f6wpr"><rect x="95.36" y="78.19" width="48.42" height="0.89" style="fill: rgb(235, 235, 235); transform-origin: 119.57px 78.635px; transform: rotate(-13.49deg);" class="animable"></rect></g><g id="el2b2no22bhf5"><rect x="96.77" y="84.08" width="48.42" height="0.89" style="fill: rgb(235, 235, 235); transform-origin: 120.98px 84.525px; transform: rotate(-13.49deg);" class="animable"></rect></g><g id="elpclcr3g242e"><rect x="98.52" y="92.82" width="24" height="0.89" style="fill: rgb(235, 235, 235); transform-origin: 110.52px 93.265px; transform: rotate(-13.49deg);" class="animable"></rect></g><path d="M158.45,98.3,56.06,122.88,43.24,69.43,145.62,44.86ZM57.12,121.15l99.6-23.9L144.56,46.58,45,70.49Z" style="fill: rgb(235, 235, 235); transform-origin: 100.845px 83.87px;" id="elc4ljksecgcp" class="animable"></path><g id="elnyknwl78v2"><rect x="43.65" y="57.72" width="103.86" height="8.47" style="fill: rgb(235, 235, 235); transform-origin: 95.58px 61.955px; transform: rotate(-13.49deg);" class="animable"></rect></g><path d="M55.27,251.79a2.94,2.94,0,0,1,3.09,0c.26.16.53.31.8.45s.54.29.82.42a3,3,0,0,1,1.72,2.55l.12,3.8,12.38-.38-.11-3.8a2.92,2.92,0,0,1,1.55-2.67c.54-.3,1.06-.62,1.57-1a2.93,2.93,0,0,1,3.08-.2l3.34,1.79,5.86-10.92-3.34-1.8a3,3,0,0,1-1.54-2.67c0-.61,0-1.23-.06-1.84a2.94,2.94,0,0,1,1.36-2.78l3.23-2-6.53-10.53-3.25,2a2.93,2.93,0,0,1-3.07,0c-.26-.16-.53-.31-.8-.45s-.54-.29-.81-.41A3,3,0,0,1,73,218.82l-.11-3.8-12.39.38.12,3.79A2.94,2.94,0,0,1,59,221.87a17.16,17.16,0,0,0-1.58,1,2.93,2.93,0,0,1-3.08.2L51,221.25l-5.86,10.92L48.51,234A2.94,2.94,0,0,1,50,236.64c0,.62,0,1.24.06,1.85a2.93,2.93,0,0,1-1.37,2.77l-3.22,2L52,253.79Zm3.1-19.56A10.15,10.15,0,1,1,62.53,246,10.16,10.16,0,0,1,58.37,232.23Z" style="fill: rgb(235, 235, 235); transform-origin: 67.315px 237.015px;" id="eldlggkqoxgs7" class="animable"></path><path d="M437,124.44a2.07,2.07,0,0,1,1.92-1h1.28a2.06,2.06,0,0,1,1.91,1l1.33,2.31L451,122.4l-1.33-2.3a2.07,2.07,0,0,1,.08-2.17c.23-.36.45-.73.65-1.12a2.06,2.06,0,0,1,1.83-1.14h2.66V107h-2.66a2.06,2.06,0,0,1-1.83-1.14c-.2-.39-.42-.76-.65-1.12a2.07,2.07,0,0,1-.08-2.17l1.33-2.3-7.52-4.34-1.34,2.32a2.06,2.06,0,0,1-1.9,1l-.64,0-.64,0a2.07,2.07,0,0,1-1.92-1l-1.33-2.31-7.52,4.34,1.33,2.3a2.05,2.05,0,0,1-.07,2.16,11.42,11.42,0,0,0-.65,1.13,2.07,2.07,0,0,1-1.84,1.14h-2.65v8.68h2.65a2.07,2.07,0,0,1,1.84,1.14,11.42,11.42,0,0,0,.65,1.13,2.05,2.05,0,0,1,.07,2.16l-1.33,2.3,7.52,4.34Zm-4.56-13.11a7.11,7.11,0,1,1,7.12,7.11A7.12,7.12,0,0,1,432.43,111.33Z" style="fill: rgb(235, 235, 235); transform-origin: 439.6px 111.345px;" id="ell5ukw0ngm6" class="animable"></path><path d="M82.36,282.66a2.05,2.05,0,0,1,1,1.91c0,.21,0,.43,0,.64s0,.43,0,.65a2.06,2.06,0,0,1-1,1.91l-2.31,1.33,4.34,7.52,2.31-1.33a2.05,2.05,0,0,1,2.16.07A12.53,12.53,0,0,0,90,296a2.05,2.05,0,0,1,1.14,1.83v2.66h8.69v-2.66A2.05,2.05,0,0,1,101,296a12.53,12.53,0,0,0,1.12-.65,2.05,2.05,0,0,1,2.16-.07l2.31,1.33,4.34-7.52-2.32-1.34a2.07,2.07,0,0,1-1-1.91c0-.21,0-.42,0-.64s0-.43,0-.64a2.06,2.06,0,0,1,1-1.91l2.31-1.33-4.34-7.52-2.3,1.33a2.07,2.07,0,0,1-2.17-.08c-.36-.23-.73-.45-1.12-.65a2,2,0,0,1-1.14-1.83v-2.66H91.12v2.66A2,2,0,0,1,90,274.41c-.39.2-.76.42-1.12.65a2.07,2.07,0,0,1-2.17.08l-2.3-1.33-4.34,7.52Zm13.1-4.56a7.11,7.11,0,1,1-7.11,7.11A7.11,7.11,0,0,1,95.46,278.1Z" style="fill: rgb(235, 235, 235); transform-origin: 95.49px 285.2px;" id="el2proovrtv0a" class="animable"></path><path d="M408.28,99.66l-16.9-8,.08-.32a79.54,79.54,0,0,0,1.69-8.91c.09-1.41-.63-3.11-1.53-5.26-2.06-4.9-5.17-12.31-1.22-23.93,2.27-6.71,8.38-13,15.55-16a26.58,26.58,0,0,1,35.34,16.77c2.18,7.47,1.16,16.19-2.6,22.21h0c-6.52,10.4-14.23,12.67-19.33,14.17-2.24.66-4,1.18-5.05,2.14a80.2,80.2,0,0,0-5.83,6.94Zm-16-8.47L408,98.66a76.73,76.73,0,0,1,5.73-6.79c1.19-1.08,3-1.63,5.36-2.31C424.42,88,431.66,85.87,438,75.73c3.64-5.84,4.63-14.3,2.5-21.57A25.77,25.77,0,0,0,406.26,37.9c-7,3-12.9,9.06-15.11,15.57-3.85,11.33-.93,18.28,1.2,23.36.95,2.25,1.69,4,1.59,5.62A70.34,70.34,0,0,1,392.3,91.19Z" style="fill: rgb(235, 235, 235); transform-origin: 415.461px 67.483px;" id="elmtoppohyk3c" class="animable"></path><g id="elooglpnrq6b"><rect x="385.35" y="78.8" width="29.24" height="1.18" style="fill: rgb(235, 235, 235); transform-origin: 399.97px 79.39px; transform: rotate(-75.16deg);" class="animable"></rect></g><g id="elzfdog9rypam"><rect x="398.22" y="84.92" width="29.24" height="1.18" style="fill: rgb(235, 235, 235); transform-origin: 412.84px 85.51px; transform: rotate(-54.02deg);" class="animable"></rect></g><path d="M408.45,78.16h0c-1.54-.73-2.21-2.72-2.33-4.88a2.17,2.17,0,0,1-1.74.07h0c-2.49-1.18-1.07-6.74-1-7l.57.15c-.39,1.47-1,5.48.69,6.29h0a1.84,1.84,0,0,0,1.46-.17,12.75,12.75,0,0,1,1-5.17c.69-1.45,1.64-2,2.6-1.56h0a1.68,1.68,0,0,1,1,1.46c.14,1.7-1.68,4.07-3.45,5.29-.19.13-.38.25-.56.35.09,2.08.7,4,2,4.61h0c1.2.57,2.77,0,4.22-1.12a7.51,7.51,0,0,1,.59-5.09c.88-1.85,2.13-2.66,3.26-2.13h0c.93.44,1,1.6.28,3.18a13.58,13.58,0,0,1-3.45,4.24,2.49,2.49,0,0,0,1.27,1.38h0c1.46.69,4.44-2.23,5.47-3.41l.44.39c-.4.47-4,4.56-6.16,3.55h0a3.08,3.08,0,0,1-1.48-1.54C411.58,78.21,409.87,78.84,408.45,78.16Zm8.07-8.33c-1-.46-1.94.71-2.48,1.84a7.52,7.52,0,0,0-.63,4.45,12.5,12.5,0,0,0,3.1-3.91c.28-.58.84-2,0-2.38Zm-7.1-3.37c-.81-.39-1.44.48-1.81,1.28a11.48,11.48,0,0,0-.94,4.6l.24-.16c1.6-1.11,3.31-3.33,3.19-4.75a1.1,1.1,0,0,0-.68-1Z" style="fill: rgb(235, 235, 235); transform-origin: 411.842px 72.2461px;" id="elvgy566lnl4c" class="animable"></path><path d="M408.72,103.83l-20.85-9.9,2.21-4.65,20.85,9.9ZM388.93,93.55l19.42,9.23,1.53-3.22-19.42-9.23Z" style="fill: rgb(235, 235, 235); transform-origin: 399.4px 96.555px;" id="elbpxiubguahd" class="animable"></path><path d="M406.55,108.41,385.7,98.5l2.21-4.65,20.85,9.9Zm-19.8-10.28,19.43,9.22,1.53-3.22-19.43-9.22Z" style="fill: rgb(235, 235, 235); transform-origin: 397.23px 101.13px;" id="elerjg593o1t9" class="animable"></path><path d="M404.38,113l-20.85-9.91,2.21-4.65,20.85,9.91Zm-19.8-10.28L404,111.92l1.52-3.22-19.42-9.22Z" style="fill: rgb(235, 235, 235); transform-origin: 395.06px 105.72px;" id="elg6palyb7egt" class="animable"></path></g><g id="freepik--Floor--inject-53" class="animable" style="transform-origin: 250px 452.996px;"><path d="M47.77,453c129.56-.62,274.9-.62,404.46,0-129.56.61-274.9.61-404.46,0Z" style="fill: rgb(38, 50, 56); transform-origin: 250px 452.996px;" id="eldro3mnt80dk" class="animable"></path></g><g id="freepik--Device--inject-53" class="animable" style="transform-origin: 247.91px 251.83px;"><g id="elfd5ro42fge5"><rect x="46.74" y="117.24" width="402.34" height="269.18" rx="12.89" style="fill: rgb(55, 71, 79); transform-origin: 247.91px 251.83px; transform: rotate(90deg);" class="animable"></rect></g><rect x="124.99" y="78.82" width="246.15" height="346.26" style="fill: rgb(255, 255, 255); transform-origin: 248.065px 251.95px;" id="elc10f7qwbs7s" class="animable"></rect><g id="elj39hjia4lti"><rect x="245.81" y="37.71" width="4.18" height="58.58" rx="1.25" style="fill: rgb(38, 50, 56); transform-origin: 247.9px 67px; transform: rotate(90deg);" class="animable"></rect></g><circle cx="247.91" cy="438.68" r="7.58" style="fill: rgb(38, 50, 56); transform-origin: 247.91px 438.68px;" id="elulny57einwr" class="animable"></circle><rect x="124.99" y="78.82" width="246.15" height="346.26" style="fill: rgb(255, 255, 255); transform-origin: 248.065px 251.95px;" id="elwrtvj855un" class="animable"></rect><rect x="124.99" y="78.82" width="246.15" height="346.26" style="fill: rgb(255, 255, 255); transform-origin: 248.065px 251.95px;" id="elhoicgpycz6" class="animable"></rect><path d="M371.14,425.08c-.08,0-246.18.08-246.26.11s-.11-346.34-.14-346.37v-.25H125c.1-.06,246.19.15,246.29.11s-.21,346.32-.14,346.4Zm0,0L371,78.82c.88.35-246.2.16-246,.25l.25-.25-.15,346.26c-.65-.21,246.19,0,246.05,0Z" style="fill: rgb(38, 50, 56); transform-origin: 248.025px 251.875px;" id="el9d2091mic8v" class="animable"></path><rect x="124.99" y="417.42" width="246.15" height="7.66" style="fill: rgb(117, 41, 115); transform-origin: 248.065px 421.25px;" id="elmn0m9b5r1n" class="animable"></rect><g id="elcvlyf0h698g"><rect x="246.39" y="78.82" width="124.75" height="346.26" style="fill: rgb(117, 41, 115); opacity: 0.1; transform-origin: 308.765px 251.95px;" class="animable"></rect></g><rect x="142.49" y="101.75" width="211.14" height="24.79" style="fill: rgb(117, 41, 115); transform-origin: 248.06px 114.145px;" id="elgkxcnlqqrw5" class="animable"></rect><rect x="142.49" y="237.39" width="41.18" height="2.79" style="fill: rgb(69, 90, 100); transform-origin: 163.08px 238.785px;" id="el9za493usmes" class="animable"></rect><rect x="142.49" y="368.71" width="41.18" height="2.79" style="fill: rgb(69, 90, 100); transform-origin: 163.08px 370.105px;" id="eldk15foa066" class="animable"></rect><rect x="142.49" y="316.92" width="41.18" height="2.79" style="fill: rgb(69, 90, 100); transform-origin: 163.08px 318.315px;" id="el3g5txtqutkq" class="animable"></rect><rect x="154.78" y="249.55" width="82.92" height="3.85" style="fill: rgb(235, 235, 235); transform-origin: 196.24px 251.475px;" id="elni3oqvslmvd" class="animable"></rect><rect x="154.78" y="249.55" width="59.95" height="3.85" style="fill: rgb(117, 41, 115); transform-origin: 184.755px 251.475px;" id="el9tuatdgpgq" class="animable"></rect><rect x="154.78" y="259.5" width="82.92" height="3.85" style="fill: rgb(235, 235, 235); transform-origin: 196.24px 261.425px;" id="elfq5nvmg305" class="animable"></rect><rect x="154.78" y="259.5" width="76.04" height="3.85" style="fill: rgb(117, 41, 115); transform-origin: 192.8px 261.425px;" id="elpurmupalz0l" class="animable"></rect><rect x="154.78" y="269.46" width="82.92" height="3.85" style="fill: rgb(235, 235, 235); transform-origin: 196.24px 271.385px;" id="elo4lvcwrd70m" class="animable"></rect><rect x="154.78" y="269.46" width="64.62" height="3.85" style="fill: rgb(117, 41, 115); transform-origin: 187.09px 271.385px;" id="el732god609ca" class="animable"></rect><rect x="154.78" y="279.42" width="82.92" height="3.85" style="fill: rgb(235, 235, 235); transform-origin: 196.24px 281.345px;" id="elk0ne0gcglcj" class="animable"></rect><rect x="154.78" y="279.42" width="71.26" height="3.85" style="fill: rgb(117, 41, 115); transform-origin: 190.41px 281.345px;" id="el5isji3dbun" class="animable"></rect><rect x="154.78" y="289.38" width="82.92" height="3.85" style="fill: rgb(235, 235, 235); transform-origin: 196.24px 291.305px;" id="elmnq7dnayge9" class="animable"></rect><rect x="154.78" y="289.38" width="77.98" height="3.85" style="fill: rgb(117, 41, 115); transform-origin: 193.77px 291.305px;" id="el1thhtwwv1zu" class="animable"></rect><rect x="142.49" y="248.36" width="6.22" height="6.22" style="fill: rgb(117, 41, 115); transform-origin: 145.6px 251.47px;" id="elzpfvmmb5geq" class="animable"></rect><rect x="142.49" y="258.32" width="6.22" height="6.22" style="fill: rgb(69, 90, 100); transform-origin: 145.6px 261.43px;" id="elqv8bouor64" class="animable"></rect><rect x="142.49" y="268.28" width="6.22" height="6.22" style="fill: rgb(199, 199, 199); transform-origin: 145.6px 271.39px;" id="el1y09zse0ilt" class="animable"></rect><rect x="142.49" y="278.24" width="6.22" height="6.22" style="fill: rgb(117, 41, 115); transform-origin: 145.6px 281.35px;" id="ely46tq9uexso" class="animable"></rect><rect x="142.49" y="288.2" width="6.22" height="6.22" style="fill: rgb(38, 50, 56); transform-origin: 145.6px 291.31px;" id="el4b8xpgkaesz" class="animable"></rect><rect x="260.08" y="237.39" width="52.84" height="2.79" style="fill: rgb(69, 90, 100); transform-origin: 286.5px 238.785px;" id="el7pya9fbyzu8" class="animable"></rect><rect x="260.08" y="248.21" width="20.08" height="2.79" style="fill: rgb(199, 199, 199); transform-origin: 270.12px 249.605px;" id="elk23280jdovt" class="animable"></rect><rect x="260.08" y="271.92" width="20.08" height="2.79" style="fill: rgb(199, 199, 199); transform-origin: 270.12px 273.315px;" id="el4jqu9qfuxlw" class="animable"></rect><rect x="260.08" y="295.64" width="20.08" height="2.79" style="fill: rgb(199, 199, 199); transform-origin: 270.12px 297.035px;" id="el250lwju9f7j" class="animable"></rect><rect x="260.08" y="319.35" width="20.08" height="2.79" style="fill: rgb(199, 199, 199); transform-origin: 270.12px 320.745px;" id="elpxl5634zwgj" class="animable"></rect><rect x="260.08" y="344.18" width="20.08" height="2.79" style="fill: rgb(199, 199, 199); transform-origin: 270.12px 345.575px;" id="el9zx2w38o6h4" class="animable"></rect><path d="M300.64,249.6c17.05-.49,35.81-.5,52.86,0-17.05.5-35.81.49-52.86,0Z" style="fill: rgb(166, 166, 166); transform-origin: 327.07px 249.6px;" id="elp5km5try1a" class="animable"></path><path d="M300.64,253.41c17.05-.5,35.81-.5,52.86,0-17.05.49-35.81.49-52.86,0Z" style="fill: rgb(166, 166, 166); transform-origin: 327.07px 253.406px;" id="el8vw7yhnuf1f" class="animable"></path><path d="M300.64,257.21c17.05-.49,35.81-.5,52.86,0-17.05.5-35.81.49-52.86,0Z" style="fill: rgb(166, 166, 166); transform-origin: 327.07px 257.21px;" id="el0cv5bfeml2ik" class="animable"></path><path d="M300.64,261A161.56,161.56,0,0,1,323,261a163.14,163.14,0,0,1-22.33,0Z" style="fill: rgb(166, 166, 166); transform-origin: 311.82px 260.998px;" id="elqli8ijgejzn" class="animable"></path><path d="M300.64,273.38c17.05-.49,35.81-.49,52.86,0-17.05.5-35.81.49-52.86,0Z" style="fill: rgb(166, 166, 166); transform-origin: 327.07px 273.382px;" id="elj9y8es288l" class="animable"></path><path d="M300.64,277.19c17.05-.49,35.81-.5,52.86,0-17.05.49-35.81.49-52.86,0Z" style="fill: rgb(166, 166, 166); transform-origin: 327.07px 277.188px;" id="el7idykwgsv1p" class="animable"></path><path d="M300.64,281c17.05-.49,35.81-.49,52.86,0-17.05.5-35.81.5-52.86,0Z" style="fill: rgb(166, 166, 166); transform-origin: 327.07px 281.004px;" id="el9a58hluojbq" class="animable"></path><path d="M300.64,284.8a161.56,161.56,0,0,1,22.33,0,163.14,163.14,0,0,1-22.33,0Z" style="fill: rgb(166, 166, 166); transform-origin: 311.805px 284.798px;" id="el2ifw2x0llm3" class="animable"></path><path d="M300.64,297.16c17.05-.49,35.81-.49,52.86,0-17.05.5-35.81.5-52.86,0Z" style="fill: rgb(166, 166, 166); transform-origin: 327.07px 297.164px;" id="elbs8yc41agi" class="animable"></path><path d="M300.64,301c17.05-.49,35.81-.5,52.86,0-17.05.5-35.81.49-52.86,0Z" style="fill: rgb(166, 166, 166); transform-origin: 327.07px 301px;" id="elwkk73f8m0ie" class="animable"></path><path d="M300.64,304.78c17.05-.5,35.81-.5,52.86,0-17.05.49-35.81.49-52.86,0Z" style="fill: rgb(166, 166, 166); transform-origin: 327.07px 304.776px;" id="elx6v1fl7yoni" class="animable"></path><path d="M300.64,308.58a163.14,163.14,0,0,1,22.33,0,161.56,161.56,0,0,1-22.33,0Z" style="fill: rgb(166, 166, 166); transform-origin: 311.805px 308.582px;" id="elxcpvpdw5b3" class="animable"></path><path d="M300.64,344.73c17.05-.49,35.81-.5,52.86,0-17.05.49-35.81.49-52.86,0Z" style="fill: rgb(166, 166, 166); transform-origin: 327.07px 344.728px;" id="elytleenxf9x" class="animable"></path><path d="M300.64,348.53c17.05-.49,35.81-.49,52.86,0-17.05.5-35.81.5-52.86,0Z" style="fill: rgb(166, 166, 166); transform-origin: 327.07px 348.534px;" id="elvvx7y1asund" class="animable"></path><path d="M300.64,352.34c17.05-.49,35.81-.5,52.86,0-17.05.5-35.81.49-52.86,0Z" style="fill: rgb(166, 166, 166); transform-origin: 327.07px 352.34px;" id="elytfjr5febj" class="animable"></path><path d="M300.64,356.15a161.56,161.56,0,0,1,22.33,0,163.14,163.14,0,0,1-22.33,0Z" style="fill: rgb(166, 166, 166); transform-origin: 311.805px 356.148px;" id="eldpnr35sn0dv" class="animable"></path><path d="M300.64,321c17.05-.5,35.81-.5,52.86,0-17.05.49-35.81.49-52.86,0Z" style="fill: rgb(166, 166, 166); transform-origin: 327.07px 320.996px;" id="elnrkw2pljv7" class="animable"></path><path d="M300.64,324.75c17.05-.49,35.81-.49,52.86,0-17.05.5-35.81.49-52.86,0Z" style="fill: rgb(166, 166, 166); transform-origin: 327.07px 324.752px;" id="elbgd330hkiyt" class="animable"></path><path d="M300.64,328.56c17.05-.49,35.81-.5,52.86,0-17.05.49-35.81.49-52.86,0Z" style="fill: rgb(166, 166, 166); transform-origin: 327.07px 328.558px;" id="el9a6un2x4jve" class="animable"></path><path d="M300.64,332.36a163.14,163.14,0,0,1,22.33,0,161.56,161.56,0,0,1-22.33,0Z" style="fill: rgb(166, 166, 166); transform-origin: 311.805px 332.362px;" id="eldggotb5o5vj" class="animable"></path><polygon points="290.06 248.65 290.21 266.52 290.3 284.4 290.38 320.15 290.31 322.35 290.21 340.22 290.06 358.1 289.9 340.22 289.81 322.35 289.73 320.15 289.81 284.4 289.9 266.52 290.06 248.65" style="fill: rgb(117, 41, 115); transform-origin: 290.055px 303.375px;" id="ell1724dab56e" class="animable"></polygon><path d="M291.29,249.6a1.24,1.24,0,1,1-1.24-1.24A1.24,1.24,0,0,1,291.29,249.6Z" style="fill: rgb(117, 41, 115); transform-origin: 290.05px 249.6px;" id="eljpn4rc79ix" class="animable"></path><path d="M291.29,273.38a1.24,1.24,0,1,1-1.24-1.24A1.23,1.23,0,0,1,291.29,273.38Z" style="fill: rgb(117, 41, 115); transform-origin: 290.05px 273.38px;" id="eln9ocehtfakd" class="animable"></path><path d="M291.29,297.16a1.24,1.24,0,1,1-1.24-1.23A1.23,1.23,0,0,1,291.29,297.16Z" style="fill: rgb(117, 41, 115); transform-origin: 290.05px 297.17px;" id="elrgfrt7b8up" class="animable"></path><path d="M291.29,321a1.24,1.24,0,1,1-1.24-1.24A1.23,1.23,0,0,1,291.29,321Z" style="fill: rgb(117, 41, 115); transform-origin: 290.05px 321px;" id="el0j970x24a5mh" class="animable"></path><path d="M291.29,344.73a1.24,1.24,0,1,1-1.24-1.24A1.24,1.24,0,0,1,291.29,344.73Z" style="fill: rgb(117, 41, 115); transform-origin: 290.05px 344.73px;" id="el4066pn8h07t" class="animable"></path><path d="M160.83,338.4a9.17,9.17,0,1,1-1.21-4.55A9.16,9.16,0,0,1,160.83,338.4Z" style="fill: rgb(69, 90, 100); transform-origin: 151.66px 338.403px;" id="el851vsji6hb7" class="animable"></path><path d="M159.62,333.85l-8,4.55v-9.17A9.16,9.16,0,0,1,159.62,333.85Z" style="fill: rgb(117, 41, 115); transform-origin: 155.62px 333.815px;" id="elwzpggt82cbe" class="animable"></path><path d="M158,338.4a6.34,6.34,0,1,1-6.34-6.34A6.34,6.34,0,0,1,158,338.4Z" style="fill: rgb(255, 255, 255); transform-origin: 151.66px 338.4px;" id="elxqjddeae1uo" class="animable"></path><rect x="149.02" y="336.99" width="5.28" height="0.75" style="fill: rgb(38, 50, 56); transform-origin: 151.66px 337.365px;" id="el49zdwhjevul" class="animable"></rect><rect x="147.72" y="339.07" width="7.9" height="0.75" style="fill: rgb(166, 166, 166); transform-origin: 151.67px 339.445px;" id="elqh3z8zc82aa" class="animable"></rect><path d="M186.49,338.4a8.58,8.58,0,0,1-.1,1.35,9.16,9.16,0,1,1,.1-1.35Z" style="fill: rgb(69, 90, 100); transform-origin: 177.33px 338.4px;" id="elpd3z4xjn5z" class="animable"></path><path d="M186.49,338.4a8.58,8.58,0,0,1-.1,1.35l-9.07-1.35v-9.17a9.17,9.17,0,0,1,9.17,9.17Z" style="fill: rgb(117, 41, 115); transform-origin: 181.905px 334.49px;" id="el7noj7xfuev3" class="animable"></path><path d="M183.66,338.4a6.34,6.34,0,1,1-6.34-6.34A6.34,6.34,0,0,1,183.66,338.4Z" style="fill: rgb(255, 255, 255); transform-origin: 177.32px 338.4px;" id="elp8rx0s59p4" class="animable"></path><rect x="174.68" y="336.99" width="5.28" height="0.75" style="fill: rgb(38, 50, 56); transform-origin: 177.32px 337.365px;" id="elwv4eaczhjq" class="animable"></rect><rect x="173.37" y="339.07" width="7.89" height="0.75" style="fill: rgb(166, 166, 166); transform-origin: 177.315px 339.445px;" id="eldfe16slvhst" class="animable"></rect><path d="M212.33,338.4a9.16,9.16,0,0,1-5.89,8.56,9,9,0,0,1-3.28.61,9.17,9.17,0,1,1,8-13.72A9,9,0,0,1,212.33,338.4Z" style="fill: rgb(69, 90, 100); transform-origin: 203.18px 338.4px;" id="elq8c0ywhmgda" class="animable"></path><path d="M212.33,338.4a9.16,9.16,0,0,1-5.89,8.56l-3.28-8.56v-9.17a9.16,9.16,0,0,1,8,4.62A9,9,0,0,1,212.33,338.4Z" style="fill: rgb(117, 41, 115); transform-origin: 207.745px 338.095px;" id="elof074ggb79r" class="animable"></path><path d="M209.5,338.4a6.35,6.35,0,1,1-6.34-6.34A6.34,6.34,0,0,1,209.5,338.4Z" style="fill: rgb(255, 255, 255); transform-origin: 203.15px 338.41px;" id="elvsgs38whwl" class="animable"></path><rect x="200.52" y="336.99" width="5.28" height="0.75" style="fill: rgb(38, 50, 56); transform-origin: 203.16px 337.365px;" id="elyf6m3h1e3gj" class="animable"></rect><rect x="199.21" y="339.07" width="7.89" height="0.75" style="fill: rgb(166, 166, 166); transform-origin: 203.155px 339.445px;" id="elkva69u4855" class="animable"></rect><path d="M238,338.4a9.15,9.15,0,0,1-9.17,9.17A9.17,9.17,0,1,1,238,338.4Z" style="fill: rgb(69, 90, 100); transform-origin: 228.83px 338.4px;" id="eloz3f72bgttk" class="animable"></path><path d="M238,338.4a9.15,9.15,0,0,1-9.17,9.17,9.11,9.11,0,0,1-5.95-2.19l5.95-7v-9.17A9.17,9.17,0,0,1,238,338.4Z" style="fill: rgb(117, 41, 115); transform-origin: 230.44px 338.39px;" id="elnfit3pylit" class="animable"></path><circle cx="228.85" cy="338.4" r="6.34" style="fill: rgb(255, 255, 255); transform-origin: 228.85px 338.4px;" id="elogxmmpqsbco" class="animable"></circle><rect x="226.21" y="336.99" width="5.28" height="0.75" style="fill: rgb(38, 50, 56); transform-origin: 228.85px 337.365px;" id="ele428xmu777v" class="animable"></rect><rect x="224.9" y="339.07" width="7.89" height="0.75" style="fill: rgb(166, 166, 166); transform-origin: 228.845px 339.445px;" id="elg7mz9jtbkqs" class="animable"></rect><g id="freepik--IaQ7Yo--inject-53" class="animable" style="transform-origin: 146.673px 385.782px;"><path d="M149.41,389.38a1,1,0,0,1-.49.24l-.24.05h-.43l-.43-.07a4.34,4.34,0,0,1-1.55-.69,10,10,0,0,1-2.78-2.79,4.3,4.3,0,0,1-.68-1.53c0-.15,0-.3-.07-.44v-.42a2.48,2.48,0,0,1,.1-.39A3.82,3.82,0,0,1,143,383l.07.06,1.76,1.76s0,.06,0,.11a.86.86,0,0,0,.19.85,14.92,14.92,0,0,0,1.59,1.59.86.86,0,0,0,.85.19s.07,0,.1,0l1.79,1.78S149.4,389.36,149.41,389.38Z" style="fill: rgb(117, 41, 115); transform-origin: 146.075px 386.335px;" id="eljyvbpp9vw4" class="animable"></path><path d="M150.44,388.35l-.62.62,0,0-1.8-1.8.13-.13.53-.52a.28.28,0,0,1,.46,0l1.34,1.34A.28.28,0,0,1,150.44,388.35Z" style="fill: rgb(117, 41, 115); transform-origin: 149.313px 387.685px;" id="elzx5i1fa1umd" class="animable"></path><path d="M145.87,383.75l-.69.66-1.78-1.78,0,0,.63-.63a.28.28,0,0,1,.44,0l1.36,1.36A.27.27,0,0,1,145.87,383.75Z" style="fill: rgb(117, 41, 115); transform-origin: 144.668px 383.152px;" id="elvm2t9wx7ai" class="animable"></path></g><g id="freepik--TEfYE6--inject-53" class="animable" style="transform-origin: 146.659px 401.134px;"><path d="M150.2,398.5l-.19.18-3,2.87a.46.46,0,0,1-.69,0l-3.09-2.92-.12-.11a.47.47,0,0,1,.27-.08h2.09l4.36,0A.67.67,0,0,1,150.2,398.5Z" style="fill: rgb(117, 41, 115); transform-origin: 146.655px 400.07px;" id="elrakmfegge1" class="animable"></path><path d="M150.19,403.83a2.34,2.34,0,0,1-.26,0l-2.5,0h-4a.7.7,0,0,1-.33-.08l2.5-2.37.48.45.2.19a.54.54,0,0,0,.77,0l.67-.64c.82.79,1.65,1.57,2.48,2.35Z" style="fill: rgb(117, 41, 115); transform-origin: 146.65px 402.607px;" id="ely1mgoxgdk9n" class="animable"></path><path d="M145.28,401.16c-.81.78-1.63,1.55-2.43,2.34,0,0,0-.07,0-.12,0-1.47,0-2.93,0-4.4a.59.59,0,0,1,0-.14Z" style="fill: rgb(117, 41, 115); transform-origin: 144.063px 401.17px;" id="el56a9bb9dmvh" class="animable"></path><path d="M150.45,403.47c-.3-.29-.6-.58-.91-.86l-1.47-1.4-.06,0c.81-.79,1.63-1.56,2.42-2.34C150.47,398.91,150.49,403.35,150.45,403.47Z" style="fill: rgb(117, 41, 115); transform-origin: 149.241px 401.17px;" id="ela1znufs1tb8" class="animable"></path></g><g id="freepik--aiZGp2--inject-53" class="animable" style="transform-origin: 272.625px 385.77px;"><path d="M270.28,383.78a5.48,5.48,0,0,0-.38,1.74h-1.55v0s0-.08,0-.12a4.09,4.09,0,0,1,.1-.61,4.69,4.69,0,0,1,.34-.95s0,0,0,0h1.43Z" style="fill: rgb(117, 41, 115); transform-origin: 269.315px 384.65px;" id="elw32gi2g6vh" class="animable"></path><path d="M270.23,387.67h-1.42l0,0a4.55,4.55,0,0,1-.35-1.08,3.19,3.19,0,0,1-.07-.54V386h1.52s0,0,0,0l0,.37a5.4,5.4,0,0,0,.09.58,5.6,5.6,0,0,0,.2.7Z" style="fill: rgb(117, 41, 115); transform-origin: 269.31px 386.835px;" id="el99gt0j9ex5d" class="animable"></path><path d="M276.19,388.12v0a6.54,6.54,0,0,1-.4.52,4.29,4.29,0,0,1-.59.54,4,4,0,0,1-1.38.69,3.87,3.87,0,0,1-.59.13h-.09l0,0,0,0a4.6,4.6,0,0,0,1.12-1.08,5.91,5.91,0,0,0,.46-.76s0,0,0,0h1.45Z" style="fill: rgb(117, 41, 115); transform-origin: 274.665px 389.06px;" id="el4mt6xp9ivgm" class="animable"></path><path d="M274.77,385.52h-2v-1.74h1.56s0,0,0,0a4.62,4.62,0,0,1,.31,1,3.31,3.31,0,0,1,.08.55A.76.76,0,0,1,274.77,385.52Z" style="fill: rgb(117, 41, 115); transform-origin: 273.77px 384.65px;" id="elnuneo4k3tis" class="animable"></path><path d="M274.76,386v.13l0,.29c0,.13,0,.26-.07.39a4.66,4.66,0,0,1-.26.85,0,0,0,0,1,0,0h-1.6V386Z" style="fill: rgb(117, 41, 115); transform-origin: 273.795px 386.83px;" id="el33dc45x6nai" class="animable"></path><path d="M272.33,383.79v1.74h-1.94a.57.57,0,0,1,0-.13l0-.29c0-.15.05-.3.08-.44a5.08,5.08,0,0,1,.28-.86s0,0,0,0h1.5Z" style="fill: rgb(117, 41, 115); transform-origin: 271.358px 384.66px;" id="el9e0hhdsh907" class="animable"></path><path d="M272.34,386v1.66h-1.56s0,0,0,0a4.7,4.7,0,0,1-.27-.88c0-.16-.05-.31-.07-.47s0-.2,0-.31h1.92A0,0,0,0,1,272.34,386Z" style="fill: rgb(117, 41, 115); transform-origin: 271.396px 386.83px;" id="elx91qazxbipc" class="animable"></path><path d="M276.88,385.53h-1.63a5.54,5.54,0,0,0-.38-1.75h1.52s0,0,0,0a4.25,4.25,0,0,1,.37,1.09,3.19,3.19,0,0,1,.08.61Z" style="fill: rgb(117, 41, 115); transform-origin: 275.875px 384.655px;" id="elprbopswj2bc" class="animable"></path><path d="M276.89,386a.45.45,0,0,0,0,.11c0,.15,0,.3-.05.44a4.64,4.64,0,0,1-.3,1,1,1,0,0,0-.07.15s0,0,0,0h-1.51c0-.06,0-.11.05-.16a4.36,4.36,0,0,0,.2-.79,4,4,0,0,0,.07-.59.71.71,0,0,0,0-.14s0,0,0,0h1.62Z" style="fill: rgb(117, 41, 115); transform-origin: 275.93px 386.85px;" id="eljcutdn8p76q" class="animable"></path><path d="M276.15,383.33H274.7s0,0,0,0a4.62,4.62,0,0,0-.71-1.05,3.68,3.68,0,0,0-.54-.5l-.3-.22h0v0a4.28,4.28,0,0,1,1.44.43A4.15,4.15,0,0,1,276.15,383.33Z" style="fill: rgb(117, 41, 115); transform-origin: 274.65px 382.445px;" id="elk99xqmtw4l" class="animable"></path><path d="M272.06,390h0a3.55,3.55,0,0,1-.47-.09,4.12,4.12,0,0,1-.83-.3,4.24,4.24,0,0,1-.84-.56,4.81,4.81,0,0,1-.51-.5,4.37,4.37,0,0,1-.31-.44v0h1.35a0,0,0,0,1,0,0,4.94,4.94,0,0,0,1.06,1.42,3.94,3.94,0,0,0,.56.45Z" style="fill: rgb(117, 41, 115); transform-origin: 270.585px 389.055px;" id="el115bivbyi7lm" class="animable"></path><path d="M272,381.54l-.2.15a4.55,4.55,0,0,0-.64.6,4.29,4.29,0,0,0-.68,1l0,.07h-1.4a4.24,4.24,0,0,1,2.94-1.82h0Z" style="fill: rgb(117, 41, 115); transform-origin: 270.55px 382.45px;" id="elegfu4p6l5gh" class="animable"></path><path d="M274.18,388.12a4.77,4.77,0,0,1-.66.89,3.8,3.8,0,0,1-.75.63v-1.52Z" style="fill: rgb(117, 41, 115); transform-origin: 273.475px 388.88px;" id="elwm18f9v9zk" class="animable"></path><path d="M272.33,388.12v1.5a4.51,4.51,0,0,1-1.35-1.5Z" style="fill: rgb(117, 41, 115); transform-origin: 271.655px 388.87px;" id="ellq870xn4jn" class="animable"></path><path d="M274.14,383.33h-1.36V381.9a3.59,3.59,0,0,1,.76.64A4.7,4.7,0,0,1,274.14,383.33Z" style="fill: rgb(117, 41, 115); transform-origin: 273.46px 382.615px;" id="elatffoeeb8ib" class="animable"></path><path d="M272.33,382v1.39H271A4.19,4.19,0,0,1,272.33,382Z" style="fill: rgb(117, 41, 115); transform-origin: 271.665px 382.695px;" id="el6g1ms7zvzrd" class="animable"></path></g><g id="freepik--uGJA8C--inject-53" class="animable" style="transform-origin: 272.626px 401.173px;"><path d="M275.92,398.54a3.65,3.65,0,0,0-4.23-1.94,3.4,3.4,0,0,0-2.64,3.61,4.6,4.6,0,0,0,.48,1.58,12.11,12.11,0,0,0,2.05,3c.32.37.67.72,1,1.08l.12-.1c.44-.47.9-.93,1.32-1.43a10.28,10.28,0,0,0,1.89-3A3.41,3.41,0,0,0,275.92,398.54Zm-1.09,1.32A2.23,2.23,0,0,1,272.5,402a2.2,2.2,0,1,1,.23-4.4A2.22,2.22,0,0,1,274.83,399.86Z" style="fill: rgb(117, 41, 115); transform-origin: 272.626px 401.173px;" id="elhkdzc5186kv" class="animable"></path></g><path d="M158.45,383.17c20.87-.49,44.3-.49,65.18,0-20.88.49-44.31.49-65.18,0Z" style="fill: rgb(166, 166, 166); transform-origin: 191.04px 383.17px;" id="elmctsdvjxgxc" class="animable"></path><path d="M158.45,387.87q16.28-.76,32.59,0-16.29.75-32.59,0Z" style="fill: rgb(166, 166, 166); transform-origin: 174.745px 387.867px;" id="elsts5sj0buzm" class="animable"></path><path d="M158.45,398.8c20.87-.49,44.3-.49,65.18,0-20.88.49-44.31.49-65.18,0Z" style="fill: rgb(166, 166, 166); transform-origin: 191.04px 398.8px;" id="eldty2p7ng3jv" class="animable"></path><path d="M158.45,403.5q16.28-.76,32.59,0-16.29.75-32.59,0Z" style="fill: rgb(166, 166, 166); transform-origin: 174.745px 403.497px;" id="elpyqocrnrc3" class="animable"></path><path d="M288.45,383.17c20.87-.49,44.31-.49,65.18,0-20.87.49-44.31.49-65.18,0Z" style="fill: rgb(166, 166, 166); transform-origin: 321.04px 383.17px;" id="el6fe07ymb69x" class="animable"></path><path d="M288.45,387.87q16.28-.76,32.59,0-16.29.75-32.59,0Z" style="fill: rgb(166, 166, 166); transform-origin: 304.745px 387.867px;" id="el38wxzzp0vys" class="animable"></path><path d="M288.45,398.8c20.87-.49,44.31-.49,65.18,0-20.87.49-44.31.49-65.18,0Z" style="fill: rgb(166, 166, 166); transform-origin: 321.04px 398.8px;" id="elx3mremza23l" class="animable"></path><path d="M288.45,403.5q16.28-.76,32.59,0-16.29.75-32.59,0Z" style="fill: rgb(166, 166, 166); transform-origin: 304.745px 403.497px;" id="ely93s2rth41q" class="animable"></path><path d="M262.56,140.78c26-.49,55.17-.49,81.17,0-26,.49-55.17.49-81.17,0Z" style="fill: rgb(166, 166, 166); transform-origin: 303.145px 140.78px;" id="el8z5bzh2cngn" class="animable"></path><path d="M262.56,148.75c26-.49,55.17-.49,81.17,0-26,.49-55.17.49-81.17,0Z" style="fill: rgb(166, 166, 166); transform-origin: 303.145px 148.75px;" id="el252b76rbnkf" class="animable"></path><path d="M262.56,156.72c26-.49,55.17-.49,81.17,0-26,.49-55.17.49-81.17,0Z" style="fill: rgb(166, 166, 166); transform-origin: 303.145px 156.72px;" id="elzviwtkx455k" class="animable"></path><path d="M262.56,181.87c26-.49,55.17-.49,81.17,0-26,.49-55.17.49-81.17,0Z" style="fill: rgb(166, 166, 166); transform-origin: 303.145px 181.87px;" id="el3cb58oi8gcr" class="animable"></path><path d="M262.56,189.84c19.57-.49,41.1-.5,60.66,0-19.56.49-41.09.49-60.66,0Z" style="fill: rgb(166, 166, 166); transform-origin: 292.89px 189.838px;" id="elm82y7156o78" class="animable"></path><path d="M262.56,164.69c11.42-.51,22.87-.51,34.29,0-11.42.5-22.87.5-34.29,0Z" style="fill: rgb(166, 166, 166); transform-origin: 279.705px 164.686px;" id="elmwspv3pqm" class="animable"></path><path d="M250.83,118.61v-9a.83.83,0,0,1,.84-.84.84.84,0,0,1,.85.84v3.65h3.94v-3.65a.82.82,0,0,1,.83-.84.84.84,0,0,1,.85.84v9a.83.83,0,0,1-.85.83.82.82,0,0,1-.83-.83V115h-3.94v3.65a.83.83,0,0,1-.85.83A.82.82,0,0,1,250.83,118.61Z" style="fill: rgb(255, 255, 255); transform-origin: 254.484px 114.125px;" id="elbbov7ucn5uc" class="animable"></path><path d="M260.91,115.64a3.75,3.75,0,0,1,3.7-3.8,3.64,3.64,0,0,1,3.67,3.53v.07a.32.32,0,0,1,0,.14.72.72,0,0,1-.79.61h-4.83a1.9,1.9,0,0,0,.52,1,2.31,2.31,0,0,0,1.45.69,2.53,2.53,0,0,0,1.59-.38.86.86,0,0,1,1.14,0,.7.7,0,0,1,0,1,3.89,3.89,0,0,1-2.73,1A3.76,3.76,0,0,1,260.91,115.64Zm1.65-.74h4.3a2.46,2.46,0,0,0-2.25-1.61A2.11,2.11,0,0,0,262.56,114.9Z" style="fill: rgb(255, 255, 255); transform-origin: 264.598px 115.671px;" id="elyzcuugxwsiq" class="animable"></path><path d="M271.63,108.8a.85.85,0,0,1,.85.84v9a.84.84,0,0,1-1.68,0v-9A.84.84,0,0,1,271.63,108.8Z" style="fill: rgb(255, 255, 255); transform-origin: 271.64px 114.138px;" id="el028g74l2mi3m" class="animable"></path><path d="M275.42,108.8a.85.85,0,0,1,.85.84v9a.85.85,0,0,1-1.69,0v-9A.85.85,0,0,1,275.42,108.8Z" style="fill: rgb(255, 255, 255); transform-origin: 275.425px 114.099px;" id="elzoey9qa8fcc" class="animable"></path><path d="M279,118.33a3.76,3.76,0,0,1-1-2.67,3.88,3.88,0,0,1,1-2.66,3.52,3.52,0,0,1,2.61-1.16,3.35,3.35,0,0,1,2.54,1.16,3.8,3.8,0,0,1,1.06,2.66,3.69,3.69,0,0,1-1.06,2.67,3.35,3.35,0,0,1-2.54,1.16A3.52,3.52,0,0,1,279,118.33Zm.6-2.67a2.47,2.47,0,0,0,.55,1.61,2.07,2.07,0,0,0,1.46.56,2,2,0,0,0,1.4-.56,2.34,2.34,0,0,0,.59-1.61,2.27,2.27,0,0,0-.59-1.58,2.13,2.13,0,0,0-1.4-.58,2.18,2.18,0,0,0-1.46.58A2.39,2.39,0,0,0,279.56,115.66Z" style="fill: rgb(255, 255, 255); transform-origin: 281.605px 115.665px;" id="elmlwikt8kza9" class="animable"></path><path d="M287.75,115.78v-6.14a.85.85,0,0,1,.84-.84.83.83,0,0,1,.82.84v6.14a.82.82,0,0,1-.82.84A.84.84,0,0,1,287.75,115.78Zm.84,3.66a.83.83,0,0,1-.84-.83v-.31a.84.84,0,0,1,.84-.83.83.83,0,0,1,.82.83v.31A.81.81,0,0,1,288.59,119.44Z" style="fill: rgb(255, 255, 255); transform-origin: 288.58px 114.12px;" id="eldxk2e0p5s9e" class="animable"></path><rect x="296.7" y="201.9" width="8.88" height="8.88" style="fill: rgb(117, 41, 115); transform-origin: 301.14px 206.34px;" id="el2zace54j144" class="animable"></rect><path d="M300.31,207.28h-1.19v-1.36h1.17c0-.11,0-.19,0-.27,0-.36,0-.72,0-1.08a1.5,1.5,0,0,1,1.33-1.44,10.55,10.55,0,0,1,1.49,0v1.24h-.54a3.87,3.87,0,0,0-.48,0,.45.45,0,0,0-.38.44c0,.34,0,.69,0,1.07h1.36c-.06.45-.11.87-.17,1.28,0,0-.11.09-.17.09h-1v3.5h-1.45Z" style="fill: rgb(255, 255, 255); transform-origin: 301.115px 206.927px;" id="elgybk4v4y55a" class="animable"></path><rect x="262.56" y="201.85" width="8.88" height="8.88" style="fill: rgb(117, 41, 115); transform-origin: 267px 206.29px;" id="eldf8wm6hcn0g" class="animable"></rect><path d="M270.27,204.48a1.37,1.37,0,0,0-1.44-1.47h-3.66a1.37,1.37,0,0,0-1.43,1.44c0,.61,0,1.22,0,1.83v1.78a1.4,1.4,0,0,0,1.47,1.5h3.61a1.39,1.39,0,0,0,1.46-1.47Zm-.59,3.62a.79.79,0,0,1-.87.88c-1.2,0-2.41,0-3.62,0a.79.79,0,0,1-.87-.87v-3.65a.8.8,0,0,1,.87-.88c1.21,0,2.41,0,3.62,0a.79.79,0,0,1,.87.87c0,.61,0,1.22,0,1.83S269.69,207.49,269.68,208.1Z" style="fill: rgb(255, 255, 255); transform-origin: 267.009px 206.285px;" id="elo5r1ndz8vg" class="animable"></path><path d="M267,204.57a1.71,1.71,0,0,0-1.71,1.69,1.7,1.7,0,1,0,1.71-1.69Zm0,2.84a1.16,1.16,0,0,1-1.12-1.12,1.14,1.14,0,1,1,1.12,1.12Z" style="fill: rgb(255, 255, 255); transform-origin: 266.99px 206.27px;" id="el72quq3a662h" class="animable"></path><path d="M269.22,204.53a.39.39,0,0,1-.78-.07.37.37,0,0,1,.41-.36C269.1,204.14,269.24,204.27,269.22,204.53Z" style="fill: rgb(255, 255, 255); transform-origin: 268.83px 204.492px;" id="el5bq97bg4gof" class="animable"></path><rect x="279.5" y="201.9" width="8.88" height="8.88" style="fill: rgb(117, 41, 115); transform-origin: 283.94px 206.34px;" id="elnhk44576n8h" class="animable"></rect><path d="M280.63,209.63c.14-.51.27-1,.41-1.46a.56.56,0,0,0,0-.42,3.28,3.28,0,1,1,6.25-1.35,3.32,3.32,0,0,1-3.11,3.16,3.65,3.65,0,0,1-1.63-.31.47.47,0,0,0-.31,0Zm.8-.77c.32-.09.6-.17.88-.23a.53.53,0,0,1,.28,0,3,3,0,0,0,1.33.35,2.73,2.73,0,0,0,2.73-3.19,2.56,2.56,0,0,0-2-2.15,2.74,2.74,0,0,0-3,4,.51.51,0,0,1,0,.32C281.59,208.3,281.51,208.56,281.43,208.86Z" style="fill: rgb(255, 255, 255); transform-origin: 283.96px 206.354px;" id="el3j26ulr5to5" class="animable"></path><path d="M282.51,205c.23-.3.53-.25.68.09.06.13.08.17.14.32a.41.41,0,0,1-.09.52c-.12.1-.11.19,0,.31a2.36,2.36,0,0,0,1,.85.22.22,0,0,0,.3-.07c.29-.35.29-.34.7-.15l.14.07a.38.38,0,0,1,.11.67.9.9,0,0,1-.92.23,3.36,3.36,0,0,1-2-1.52,1.29,1.29,0,0,1-.25-.74A1.09,1.09,0,0,1,282.51,205Z" style="fill: rgb(255, 255, 255); transform-origin: 283.983px 206.343px;" id="eltvjwg67bjxp" class="animable"></path></g><g id="freepik--Plant--inject-53" class="animable" style="transform-origin: 93.8697px 389.641px;"><path d="M92.58,349.42a40.87,40.87,0,0,1-.79,15.73,42.46,42.46,0,0,1-2.42,7c-1.25,2.88-2.56,5.69-2.24,8.84.3.2-.74.17-.77-.14-8.42-4.79-19.22-5.67-25.7-13.51-3.06-3.71-4.61-8.41-5.35-13.11-.79-5.13-1-10.8.31-15.85,1.11-4.27,3.61-8.39,7.62-10.48s9.57-2,13.93-.62C86.57,330.16,91.25,340.32,92.58,349.42Z" style="fill: rgb(117, 41, 115); transform-origin: 73.8392px 353.699px;" id="elqbdboukemhn" class="animable"></path><path d="M96.9,411.73c-1.15-3.83-2.29-7.66-3.47-11.48-2.31-7.48-4.71-14.93-7.37-22.3q-2.39-6.61-5-13.11a80.37,80.37,0,0,1,1-8.14c.71-3.26,1.73-6.41,2.68-9.61.06-.19-.26-.3-.34-.11-1.89,4.4-4.35,10-4.42,15.24q-3.07-7.34-6.61-14.48a61.67,61.67,0,0,1,.37-12.06.15.15,0,0,0-.29-.06,43.06,43.06,0,0,0-.82,10.65c-1.81-3.57-3.71-7.1-5.74-10.58-.19-.31-.62,0-.46.32,3.17,6.09,6.1,12.31,8.85,18.61A40.44,40.44,0,0,0,62,347c-.21-.08-.36.23-.15.32a47.88,47.88,0,0,1,14.28,9.45q3,6.92,5.65,13.95c-5.26-5.16-12.47-8.56-19.44-10.38-.24-.06-.3.3-.08.37,8.07,2.43,14.34,7,20.48,12.5q1.06,2.83,2.1,5.7,3.9,10.82,7.42,21.77,1.71,5.23,3.35,10.51c1.17,3.77,2.09,7.76,3.63,11.4.14.35.77.27.69-.15A109.24,109.24,0,0,0,96.9,411.73Z" style="fill: rgb(38, 50, 56); transform-origin: 80.8429px 379.167px;" id="el93mjxs42t4u" class="animable"></path><path d="M82.94,342.05a20.76,20.76,0,0,0-3,7.55.06.06,0,0,0,.12,0,67,67,0,0,1,3.28-7.41C83.44,342,83.08,341.83,82.94,342.05Z" style="fill: rgb(38, 50, 56); transform-origin: 81.6487px 345.803px;" id="elewsurs8jshp" class="animable"></path><path d="M67.92,359.59A22.27,22.27,0,0,0,60.37,357c-.07,0-.11.09,0,.12,1.21.51,2.49.86,3.72,1.33s2.43,1.05,3.68,1.49A.22.22,0,0,0,67.92,359.59Z" style="fill: rgb(38, 50, 56); transform-origin: 64.1327px 358.47px;" id="el0ykuzapat3x" class="animable"></path><path d="M63.69,338.49a14.2,14.2,0,0,0-2.43-1.5.13.13,0,0,0-.14.21,14.69,14.69,0,0,0,2.4,1.55C63.67,338.85,63.84,338.59,63.69,338.49Z" style="fill: rgb(38, 50, 56); transform-origin: 62.4171px 337.877px;" id="elq4t1rqqkrf" class="animable"></path><path d="M121,378c-6.06,1.8-12.16,3.46-18.22,5.24-.52.16-10.77-19.48-7.07-29.6a33,33,0,0,1,20.61-19.55c4.33-1.48,9.65-2.71,14.22-1.7,4.07.9,6.94,4.23,8.26,8.05,1.8,5.2,1.2,11.4.22,16.7a29.23,29.23,0,0,1-6,13.64C129.8,374.61,125.69,376.61,121,378Z" style="fill: rgb(117, 41, 115); transform-origin: 117.432px 357.631px;" id="elbtk7u7hsxio" class="animable"></path><path d="M129.75,359.34A80,80,0,0,1,117.86,364a50.9,50.9,0,0,0-7.93,2.87c2.56-5.7,5.37-11.29,8.35-16.83,3.92-1.13,8-2.9,11-5.67a.17.17,0,0,0-.22-.26c-3.23,2.28-6.79,3.65-10.37,5.2.81-1.49,1.62-3,2.45-4.47.23-.41-.34-.82-.61-.42a128.7,128.7,0,0,0-8.62,14.47,66,66,0,0,1-.62-13.26.09.09,0,0,0-.18,0,44.26,44.26,0,0,0,.15,14.57c-2.13,4.24-4.06,8.59-5.8,13-.69-2.64-1.59-5.25-2.19-7.91a36.11,36.11,0,0,1-.87-11.67.09.09,0,0,0-.18,0A41.2,41.2,0,0,0,104.75,375c-1,2.65-2,5.31-2.86,8a158.85,158.85,0,0,0-8,42.07.26.26,0,0,0,.51,0,208.92,208.92,0,0,1,9-41.57c1.76-5.28,3.78-10.41,6-15.45,3.58-1.06,7.15-2.49,10.67-3.71a33.69,33.69,0,0,0,9.83-4.82A.13.13,0,0,0,129.75,359.34Z" style="fill: rgb(38, 50, 56); transform-origin: 111.901px 384.675px;" id="ellevbw7r8x6e" class="animable"></path><path d="M135.4,353.64c-3.7,1.31-7.22,3.16-10.92,4.5-.18.06-.08.34.1.3,3.92-.81,7.81-2,11-4.59C135.67,353.75,135.53,353.59,135.4,353.64Z" style="fill: rgb(38, 50, 56); transform-origin: 129.997px 356.037px;" id="els3hax30angn" class="animable"></path><path d="M105.13,345.64c0-.2-.25-.31-.31-.11-1,3.42-1.71,7-.72,10.54a.13.13,0,0,0,.26,0C104.54,352.53,104.34,349.11,105.13,345.64Z" style="fill: rgb(38, 50, 56); transform-origin: 104.377px 350.812px;" id="el2b1kne4wzez" class="animable"></path><path d="M120.45,337.74a9.08,9.08,0,0,0-1.61,5.81c0,.13.21.21.25.06.45-2,1.21-3.74,1.81-5.64A.26.26,0,0,0,120.45,337.74Z" style="fill: rgb(38, 50, 56); transform-origin: 119.863px 340.67px;" id="eli2by2s0vex8" class="animable"></path><path d="M48.84,386.67c1.78,5.64,6,13.44,12.69,13.5,4.34,0,8.71-.47,13-.53,4.66-.08,9.32-.06,14,.21.38,0-.56-13.94-11.75-20.73-3.13-1.91-7-2.51-10.52-3.28a48.64,48.64,0,0,0-12.43-1.29c-2.57.1-4.71.64-5.62,3.27S48,384,48.84,386.67Z" style="fill: rgb(117, 41, 115); transform-origin: 68.189px 387.352px;" id="el5etvqbjg5mg" class="animable"></path><path d="M53.66,379.61c2.72.7,5.46,1.5,8.19,2.37a27.63,27.63,0,0,0-2.26-2.2c-1.17-1-2.46-1.75-3.72-2.61-.1-.07,0-.27.1-.22a15.37,15.37,0,0,1,6.59,5.25c3.4,1.1,6.77,2.31,10,3.64A37.51,37.51,0,0,1,79,389.22a25.3,25.3,0,0,0-2.32-4c-1.48-1.92-3.49-3-5.43-4.36a.17.17,0,0,1,.17-.3A15.89,15.89,0,0,1,80.12,390a37.39,37.39,0,0,1,6.35,5.76c7.4,8.41,13.23,19.6,13.25,31,0,.27-.44.35-.49.06A63.32,63.32,0,0,0,85.12,396.5c-.53-.62-1.08-1.21-1.63-1.78a51.84,51.84,0,0,0-6.11-.45c-2.39,0-4.75.35-7.12.54-3.9.32-8.22.36-11.74-1.6-.16-.09-.06-.36.12-.29,7.85,2.85,16.09-.77,24,.93A36.79,36.79,0,0,0,71,386.36l-.72-.28c-5,.6-10.36,1.91-15.27.28a.12.12,0,0,1,.06-.24c4.75,1.19,9.3-.3,14-.54-5.09-2-10.28-3.56-15.4-5.53C53.2,379.88,53.19,379.49,53.66,379.61Z" style="fill: rgb(38, 50, 56); transform-origin: 76.5162px 401.973px;" id="el2b2grkt6j6l" class="animable"></path><path d="M51.43,384.57a67,67,0,0,0,7.34.56.05.05,0,0,1,0,.1,15.23,15.23,0,0,1-7.4-.47A.1.1,0,0,1,51.43,384.57Z" style="fill: rgb(38, 50, 56); transform-origin: 55.0642px 385.025px;" id="elixoc5vm8t1h" class="animable"></path><path d="M68,379.73a12.12,12.12,0,0,1,3.63,2.53c.13.11,0,.34-.18.24-.62-.45-1.25-.87-1.89-1.29a17,17,0,0,1-1.77-1.11A.22.22,0,0,1,68,379.73Z" style="fill: rgb(38, 50, 56); transform-origin: 69.7032px 381.124px;" id="eldq8ou8m0nz" class="animable"></path><path d="M107.5,397.9c-.08.18.19.36.29.16h0a.26.26,0,0,0,.17.11,111.7,111.7,0,0,0,13.67,2.39c3.7.33,8,.53,11.2-1.62,4.39-2.9,7.27-10.68,4.9-15.62-2.81-5.87-11.26-2.69-15.51-.6A31.16,31.16,0,0,0,107.5,397.9Z" style="fill: rgb(117, 41, 115); transform-origin: 123.034px 390.363px;" id="elfl1p07xfkvt" class="animable"></path><path d="M104.22,400.61a43.45,43.45,0,0,1,8.16-6.21,28,28,0,0,1,8.27-8.44c.16-.11.3.15.15.26a37.54,37.54,0,0,0-7,7.34,75.63,75.63,0,0,1,10.24-4.66,13.57,13.57,0,0,1,5.5-5.51s.1,0,.06.07a22.56,22.56,0,0,0-5,5.22c2.08-.78,4.18-1.5,6.28-2.2.19-.06.26.23.08.3-3.74,1.46-7.56,3-11.26,4.77a43,43,0,0,0,13.64,0,.1.1,0,0,1,0,.2,26.84,26.84,0,0,1-14.47.21,67.83,67.83,0,0,0-6.87,3.85,17.16,17.16,0,0,1,5.55.45,41.66,41.66,0,0,0,9.75,1.1.12.12,0,0,1,0,.23c-5.65,1-11-1.6-16.61-.93A41.26,41.26,0,0,0,96.48,413.4c-2.36,4.8-3.64,9.89-5.55,14.85a.18.18,0,0,1-.34-.09C92.22,418.37,97.09,407.58,104.22,400.61Z" style="fill: rgb(38, 50, 56); transform-origin: 112.015px 405.869px;" id="elm2rvgjdlau" class="animable"></path><path d="M121.28,387.19a6.43,6.43,0,0,1,1.45-1.76,6,6,0,0,1,1.66-1.25c.06,0,.09.06.06.1-.46.53-1.11.91-1.61,1.41s-.92,1.11-1.43,1.6A.08.08,0,0,1,121.28,387.19Z" style="fill: rgb(38, 50, 56); transform-origin: 122.862px 385.751px;" id="elwavtn03o03" class="animable"></path><path d="M130.6,390.23c.84-.21,1.73-.2,2.58-.37a23.26,23.26,0,0,0,2.5-.75c.11,0,.18.13.08.18a8.27,8.27,0,0,1-5.16,1.2C130.47,390.47,130.48,390.26,130.6,390.23Z" style="fill: rgb(38, 50, 56); transform-origin: 133.157px 389.82px;" id="el8d47lpf2ud" class="animable"></path><polygon points="80.92 416.1 81.66 424.53 84.18 453 106.47 453 109.62 424.53 110.55 416.1 80.92 416.1" style="fill: rgb(69, 90, 100); transform-origin: 95.735px 434.55px;" id="elum4b7egbq49" class="animable"></polygon><polygon points="80.92 416.1 81.66 424.53 109.81 422.79 110.55 416.1 80.92 416.1" style="fill: rgb(55, 71, 79); transform-origin: 95.735px 420.315px;" id="elagr4n5j4o2w" class="animable"></polygon><g id="elfvx1yskowfi"><rect x="78.71" y="413.8" width="34.05" height="6.84" style="fill: rgb(69, 90, 100); transform-origin: 95.735px 417.22px; transform: rotate(180deg);" class="animable"></rect></g></g><g id="freepik--character-2--inject-53" class="animable animator-active" style="transform-origin: 193.775px 167.475px;"><rect x="149.9" y="110.76" width="87.75" height="113.38" style="fill: rgb(219, 219, 219); transform-origin: 193.775px 167.45px;" id="ela025t392ztg" class="animable"></rect><path d="M205.44,151.36c1.73,4.42,4.2,8.45,5.58,13a29.94,29.94,0,0,1,1.16,13.06c-2.46,16.05-23.35,25.68-38,20.69-7-2.38-13.13-8.08-15-15.38-2.28-9,2.5-17.56,5.4-25.73a41.94,41.94,0,0,0,2.35-14.25c0-4.25-.26-8.57.61-12.76.61-3,2.65-11.69,13.67-15.16,7.91-2.49,15.91,1.82,19.6,9.34C205.08,132.93,202,142.59,205.44,151.36Z" style="fill: rgb(38, 50, 56); transform-origin: 185.512px 156.777px;" id="el7nh5o8fxzn" class="animable"></path><path d="M167.76,152.67c-3.42,7.32-7.91,14.8-9.22,22.87-1.09,6.7.71,14,6.54,17.93,0,0,.11,0,.06-.08-6.12-4.74-6.88-12.94-5.17-20,1.76-7.23,6-13.51,8.13-20.58C168.17,152.59,167.86,152.44,167.76,152.67Z" style="fill: rgb(38, 50, 56); transform-origin: 163.175px 173.012px;" id="el5irsm94emw" class="animable"></path><path d="M166.21,152.24c-2.59,9.6-10.49,17.17-11,27.38,0,.12.18.15.19,0,.66-10.2,9.45-17.44,11-27.38C166.42,152.15,166.24,152.13,166.21,152.24Z" style="fill: rgb(38, 50, 56); transform-origin: 160.806px 165.943px;" id="ellregtvg6r7" class="animable"></path><path d="M206,151.2a33.28,33.28,0,0,1-3-11.28c0-.21-.35-.22-.36,0-.93,14.09,15.22,24.66,10.92,39.24,0,.1.12.17.16.06,2.06-6,.46-12-2.24-17.57C209.75,158.11,207.66,154.76,206,151.2Z" style="fill: rgb(38, 50, 56); transform-origin: 208.629px 159.517px;" id="eld9hnjepdt18" class="animable"></path><path d="M202.73,137.82c0-.27-.43-.19-.41.07a31.64,31.64,0,0,0,5,14.82c1.41,2.19,3.13,4.16,4.49,6.38,1.48,2.44,2.63,5,3.88,7.62,0,.06.12,0,.1-.05-1.63-4.86-4.17-8.72-7.09-12.85A34.79,34.79,0,0,1,202.73,137.82Z" style="fill: rgb(38, 50, 56); transform-origin: 209.056px 152.194px;" id="eloo2ce6mfq6" class="animable"></path><path d="M201.31,166.84c16,15.21,36.55,47.61,33.13,54.43-3.81,7.58-26.09-13.74-26.05-15,0-1-8.2-20.8-14.43-35.21S197.35,163.08,201.31,166.84Z" style="fill: rgb(235, 148, 129); transform-origin: 213.366px 192.504px;" id="elzflozqw80eh" class="animable"></path><path d="M208.25,206.27c-.73-2.12-11.91-28.25-15.13-36.52s-.57-10.95,8.11-3.55,28,32.39,32.63,45.85c4.49,12.95-2.25,13.17-11.34,7.42C215.08,214.77,208.25,206.27,208.25,206.27Z" style="fill: rgb(117, 41, 115); transform-origin: 213.543px 192.472px;" id="ellevrkwlqxek" class="animable"></path><path d="M179.8,159.07c.29,1,5.47,7.31,10.08,6.85,1.5-.16,1-8.39,1-8.39l.11-.62,1.45-8.62-10.35-5.89-1.49-.77s-.24,2.38-.51,5.36c0,.13,0,.27,0,.42l-.06.48c0,.45-.09.9-.12,1.35s-.06.68-.08,1,0,.72-.07,1.08A56,56,0,0,0,179.8,159.07Z" style="fill: rgb(235, 148, 129); transform-origin: 186.043px 153.787px;" id="elzmjt9ipa4bt" class="animable"></path><path d="M180.12,147a17.52,17.52,0,0,0,10.9,9.92l1.45-8.62-10.35-5.89-1.49-.77S180.39,144,180.12,147Z" style="fill: rgb(38, 50, 56); transform-origin: 186.295px 149.28px;" id="el1n83ggfx6ay" class="animable"></path><path d="M203.27,133.11c3.12,15-5.53,18.59-8.77,19.25-2.94.61-13,2.3-17.69-12.32s1.35-20.82,8-22.56S200.15,118.08,203.27,133.11Z" style="fill: rgb(235, 148, 129); transform-origin: 189.542px 134.868px;" id="eler7dsu4ypv" class="animable"></path><path d="M198.2,130.31a9.39,9.39,0,0,1-1.06,0,1.67,1.67,0,0,1-1.07-.25.56.56,0,0,1-.11-.66,1.36,1.36,0,0,1,1.26-.53,2,2,0,0,1,1.35.49A.57.57,0,0,1,198.2,130.31Z" style="fill: rgb(38, 50, 56); transform-origin: 197.308px 129.592px;" id="elpj5aplv88sj" class="animable"></path><path d="M188.18,132.51c.35-.11.65-.26,1-.39a1.8,1.8,0,0,0,.93-.59.55.55,0,0,0-.12-.66,1.35,1.35,0,0,0-1.36-.09,2,2,0,0,0-1.12.9A.59.59,0,0,0,188.18,132.51Z" style="fill: rgb(38, 50, 56); transform-origin: 188.811px 131.582px;" id="el8ixmfhwobf3" class="animable"></path><path d="M190.84,135.76s-.07.06-.06.1c.23,1,.32,2.23-.54,2.75,0,0,0,.07,0,.06C191.36,138.29,191.22,136.69,190.84,135.76Z" style="fill: rgb(38, 50, 56); transform-origin: 190.678px 137.215px;" id="elhgmrc73scis" class="animable"></path><path d="M189.72,134.86c-1.68.2-1.17,3.53.38,3.35S191.12,134.7,189.72,134.86Z" style="fill: rgb(38, 50, 56); transform-origin: 189.859px 136.536px;" id="elhtr7pbji5sk" class="animable"></path><path d="M189.09,135.14c-.26.23-.5.61-.84.7s-.76-.2-1.08-.5c0,0-.06,0,0,0,.09.64.43,1.26,1.13,1.25s1-.64,1.06-1.31C189.33,135.21,189.2,135.05,189.09,135.14Z" style="fill: rgb(38, 50, 56); transform-origin: 188.252px 135.852px;" id="elt0esls4mbb9" class="animable"></path><path d="M196.84,134.42s.09,0,.1.08c.11,1,.42,2.21,1.41,2.42,0,0,0,.06,0,.06C197.18,137,196.79,135.43,196.84,134.42Z" style="fill: rgb(38, 50, 56); transform-origin: 197.593px 135.7px;" id="elbitpqkrc9sf" class="animable"></path><path d="M197.61,133.21c1.65-.37,2.26,2.95.74,3.29S196.23,133.52,197.61,133.21Z" style="fill: rgb(38, 50, 56); transform-origin: 198.029px 134.853px;" id="eloscumcsu76e" class="animable"></path><path d="M198.34,133.3c.3.13.62.4.93.36s.57-.45.74-.84c0,0,.05,0,.06,0,.13.63.05,1.33-.54,1.56s-1-.25-1.31-.86C198.17,133.44,198.22,133.25,198.34,133.3Z" style="fill: rgb(38, 50, 56); transform-origin: 199.162px 133.629px;" id="el11x90iky0om" class="animable"></path><path d="M192.59,143.61c.26.23.53.55.91.56a2.91,2.91,0,0,0,1.11-.33,0,0,0,0,1,0,0,1.44,1.44,0,0,1-1.29.65,1.12,1.12,0,0,1-.88-.87C192.47,143.61,192.55,143.58,192.59,143.61Z" style="fill: rgb(38, 50, 56); transform-origin: 193.525px 144.045px;" id="ellh9d4sx4o5m" class="animable"></path><path d="M196.47,139.34s.4,1.52.49,2.25c0,.07-.16.12-.41.17,0,0,0,0,0,0a3.49,3.49,0,0,1-3.53-.89c-.06-.06,0-.15.1-.11a5.26,5.26,0,0,0,3.28.52c0-.2-.78-2.58-.66-2.6a6.13,6.13,0,0,1,1.7.17c-.74-3.2-2-6.25-2.68-9.44a.1.1,0,0,1,.18-.07,52.41,52.41,0,0,1,3.33,10C198.35,139.79,196.78,139.43,196.47,139.34Z" style="fill: rgb(38, 50, 56); transform-origin: 195.635px 135.608px;" id="el4jo8e8e2ldu" class="animable"></path><path d="M177.27,139.32c3.23-.45,2.43-7.87,2.43-7.87s5.33-1.72,7.12-5.72c0,0-1.1,3.41-3.07,5-.34.27,10.62-2.28,10.58-10.91,0,0,2.7,8.18,8,9.25.25,0-1.72-7.55-3.58-9.13a18.14,18.14,0,0,0-15.56-3.85c-6.69,1.87-10.23,9.6-10.37,12.6C172.53,134.61,175.74,139.54,177.27,139.32Z" style="fill: rgb(38, 50, 56); transform-origin: 187.577px 127.5px;" id="elpblyqikqsm" class="animable"></path><path d="M184.12,130.88c6-1,10.34-5.52,10-11.77a.14.14,0,0,1,.27,0c1.63,6.17-4.57,11.64-10.36,11.92C183.94,131,184,130.9,184.12,130.88Z" style="fill: rgb(38, 50, 56); transform-origin: 189.321px 125.019px;" id="ele1vy2a8u3mq" class="animable"></path><path d="M177.24,139c3.07-2.1,3.16-5.46,3-8.84,0-.1.16-.13.18,0,.47,3.28.39,7.38-3,9.13A.15.15,0,0,1,177.24,139Z" style="fill: rgb(38, 50, 56); transform-origin: 178.894px 134.694px;" id="elkwv6ql9khvr" class="animable"></path><path d="M194.22,118.54a0,0,0,0,1,.06,0c1.18,3.37,2.08,9.2,6.63,9.5a.1.1,0,0,1,0,.19C196.52,128.32,194.21,122.19,194.22,118.54Z" style="fill: rgb(38, 50, 56); transform-origin: 197.599px 123.385px;" id="elaen8s0gld9g" class="animable"></path><path d="M179.4,139.27s-4-4.23-6-2.72,1.57,8,4.23,8.54a2.59,2.59,0,0,0,3.23-1.9Z" style="fill: rgb(235, 148, 129); transform-origin: 176.838px 140.707px;" id="el3re729irk4m" class="animable"></path><path d="M174.46,138.38s0,.06,0,.07c1.88.45,3.06,1.94,4,3.55a1.43,1.43,0,0,0-2.18-.07.06.06,0,0,0,.06.09,1.58,1.58,0,0,1,1.82.29,7.54,7.54,0,0,1,1.05,1.27c.1.15.38,0,.29-.15l0,0C179.15,141.13,176.92,138.24,174.46,138.38Z" style="fill: rgb(38, 50, 56); transform-origin: 176.989px 141.009px;" id="elkuer8ypuvmn" class="animable"></path><path d="M210.46,224.14H163.52c-1.12.05-2.18.05-3.15,0H154.3c.08-.42.16-.87.25-1.34,0-.16.07-.31.1-.47s0-.06,0-.09.07-.35.11-.53c1.46-7.27,4.06-19.23,7.47-30.78,0-.13.07-.26.11-.39s.14-.48.22-.72c3-10.21,6.73-20,10.79-25.71.29-.43.6-.84.91-1.22s.56-.69.85-1a17.7,17.7,0,0,1,1.45-1.43c.76-.64.65-5.69,1-6a7.69,7.69,0,0,1,2.08.06c2,.18,5.22.56,8,.94,1.34.18,2.58.37,3.53.53a7.77,7.77,0,0,1,1.92.42c.19.36,1,5.12,1,5.12l.36.46.31.41c1.46,1.91,3.71,5,6,8.36l.18.25a95.58,95.58,0,0,1,7.61,12.8c.1.22.19.45.28.67s.22.53.31.78c0,.07,0,.13.07.19a11.5,11.5,0,0,1,.46,1.57c1.24,6-2.53,12.65-2.73,13h0l.5,3.42.18,1.24.21,1.43,0,.18v.07l0,.08.56,3.9,1.63,11.16.15,1Z" style="fill: rgb(117, 41, 115); transform-origin: 182.38px 189.297px;" id="elk7jvhfuumxj" class="animable"></path><path d="M199.42,197.94a31.24,31.24,0,0,0-8.14,1.36c-2.66.75-8.54,3.08-10,3.65a0,0,0,1,0,0,.06,50.31,50.31,0,0,0,5.65-1.7c2.61-.89,5.24-1.69,7.9-2.38a37.59,37.59,0,0,1,4.58-.83C199.52,198.09,199.53,197.94,199.42,197.94Z" style="fill: rgb(38, 50, 56); transform-origin: 190.389px 200.475px;" id="elcmdbtfoxbpk" class="animable"></path><path d="M204.27,199.34a25.39,25.39,0,0,0-8.55.76s0,.07,0,.06c1.41-.17,2.83-.33,4.25-.45s2.86-.2,4.29-.29C204.32,199.42,204.32,199.35,204.27,199.34Z" style="fill: rgb(38, 50, 56); transform-origin: 200.013px 199.709px;" id="elhyag1797f5" class="animable"></path><path d="M179.22,159.7a10.69,10.69,0,0,1,.09-3.74,10.67,10.67,0,0,1-.09,3.74Z" style="fill: rgb(38, 50, 56); transform-origin: 179.265px 157.83px;" id="elarfiehattlk" class="animable"></path><path d="M181.71,160a9,9,0,0,1-.12-1.87,9.16,9.16,0,0,1,.21-1.87,10.67,10.67,0,0,1-.09,3.74Z" style="fill: rgb(38, 50, 56); transform-origin: 181.753px 158.13px;" id="el4hvlnmqxtfk" class="animable"></path><path d="M184.19,160.27a10.74,10.74,0,0,1,.09-3.75,10.74,10.74,0,0,1-.09,3.75Z" style="fill: rgb(38, 50, 56); transform-origin: 184.235px 158.395px;" id="el9dim679np17" class="animable"></path><path d="M186.68,160.55a10.67,10.67,0,0,1,.09-3.74,9.8,9.8,0,0,1,.12,1.87A9.92,9.92,0,0,1,186.68,160.55Z" style="fill: rgb(38, 50, 56); transform-origin: 186.726px 158.68px;" id="elexxbjl68aqq" class="animable"></path><path d="M189.16,160.83a10.67,10.67,0,0,1,.09-3.74,10.69,10.69,0,0,1-.09,3.74Z" style="fill: rgb(38, 50, 56); transform-origin: 189.205px 158.96px;" id="elw3ztb69z7em" class="animable"></path><path d="M191.65,161.11a10.69,10.69,0,0,1,.09-3.74,10.69,10.69,0,0,1-.09,3.74Z" style="fill: rgb(38, 50, 56); transform-origin: 191.695px 159.24px;" id="eljrbg5lvy8o" class="animable"></path><path d="M200.77,170.73c6.53,8.82,14.3,19,6.51,29.62l.13-.41.88,6.35v0l0,.08v.05c.78,5.91,1.53,11.83,2.15,17.77-1.11-5.87-2.1-11.75-3-17.65,0,.12,0-.06,0-.08l-1-6.33,0-.23c7.56-10.31,0-19.89-5.66-29.12Z" style="fill: rgb(38, 50, 56); transform-origin: 205.657px 197.46px;" id="eljrak3geeoe" class="animable"></path><path d="M203.08,172.24A8.09,8.09,0,0,1,205,177a33.68,33.68,0,0,1-1.89-4.76Z" style="fill: rgb(38, 50, 56); transform-origin: 204.04px 174.62px;" id="elwc2h4r3sqzn" class="animable"></path><path d="M234.62,220.82s0,0,0,0a3.89,3.89,0,0,1-.17.41,7.8,7.8,0,0,1-.76,1,.07.07,0,0,1-.05,0,4.23,4.23,0,0,1-.56.56,10.35,10.35,0,0,1-1.78,1.3H190.71c-.85-1.54-1.66-3.13-2.34-4.65l0-.06-.21-.49c-.16-.35-.31-.7-.44-1-1.43-3.51-2-6.33-.84-6.67l.43-.12c.62-.16,1.4-.37,2.31-.59l.21-.05h0l.11,0,.25-.06,1.8-.44c1.52-.36,3.21-.76,4.93-1.15l3.12-.72c1.92-.43,3.75-.84,5.29-1.17l.1,0,2.43-.52.4-.07.13,0,.08,0h0c.53-.1.88-.17,1-.18l.52,0a18.43,18.43,0,0,1,5.41.61l.39.1.53.15.2.06a34.78,34.78,0,0,1,6.25,2.61c1.15.6,2.26,1.25,3.31,1.93C231.28,214.81,235,218.81,234.62,220.82Z" style="fill: rgb(235, 148, 129); transform-origin: 210.453px 215.114px;" id="elat28qdqtvap" class="animable"></path><path d="M206,224.14H166.27a1.34,1.34,0,0,1,.16-.22,1.34,1.34,0,0,1,.16-.22c.07-.11.16-.22.25-.34A33.34,33.34,0,0,1,177.56,214a47.2,47.2,0,0,1,9.74-3.25l2.18-.5h0l.08,0,.22-.05a1.27,1.27,0,0,0,.28-.06l1.73-.34.16.16c.53.51,2.34,2.26,4.55,4.45l.1.1,1.87,1.86.1.11,0,0C201.31,219.15,204.16,222.07,206,224.14Z" style="fill: rgb(235, 148, 129); transform-origin: 186.135px 216.97px;" id="elip4nkg68ts" class="animable"></path><path d="M234.68,221.53a.25.25,0,0,1,0,.07,8.54,8.54,0,0,1-2.58,2.54H202.94l-6.65-6.94,0,0-.19-.2-1.57-1.64h0l-.4-.43-3.65-3.81-.57-.59,0,0-.23-.24-.14-.15L190,210l6.8-1.4,3.19-.66,7.82-1.61.38-.08.15,0,.1,0a13.81,13.81,0,0,1,1.59-.18,18.62,18.62,0,0,1,5.05.44h0l.37.1a5.11,5.11,0,0,1,.53.13l.17,0a30.67,30.67,0,0,1,5.72,2.2,37.39,37.39,0,0,1,4.46,2.59c4.49,3,7.82,6.57,8.36,8.78A1.77,1.77,0,0,1,234.68,221.53Z" style="fill: rgb(117, 41, 115); transform-origin: 212.167px 215.094px;" id="el4ww4co2p0oi" class="animable"></path><path d="M222.83,209.45a20.62,20.62,0,0,0-14.37-3.32c-.06,0-.05.11,0,.1,5.2-.31,12.31,2.18,14.31,3.3A0,0,0,0,0,222.83,209.45Z" style="fill: rgb(38, 50, 56); transform-origin: 215.624px 207.731px;" id="el0w8onikgvwxn" class="animable"></path><path d="M212.59,224.14h-.77c-.54-.54-1.08-1.09-1.6-1.64-1.75-1.77-3.47-3.55-5.18-5.35-1.4-1.48-2.81-3-4.19-4.47l-.9-1c-.63-.69-1.24-1.39-1.85-2.09,0,0,0-.1.07-.06.62.57,1.23,1.16,1.84,1.75l1.22,1.19,1.11,1.1c2.44,2.4,4.81,4.88,7.18,7.34l.55.57C210.92,222.37,211.76,223.25,212.59,224.14Z" style="fill: rgb(38, 50, 56); transform-origin: 205.345px 216.83px;" id="elst8ijfa89th" class="animable"></path><path d="M189.41,209.77a30,30,0,0,1,3.86-1c1.3-.29,2.61-.55,3.92-.81,2.6-.5,8.05-1.86,12.88-2,.06,0-.21.26-.26.26-2.3-.05-18.68,3.76-20,3.9a1.75,1.75,0,0,1,.16.27c0,.06,0,.15-.11.11s-.3-.25-.46-.37A.19.19,0,0,1,189.41,209.77Z" style="fill: rgb(38, 50, 56); transform-origin: 199.677px 208.235px;" id="el20yj00817jd" class="animable"></path><path d="M167.89,171.29c-7.35,12.74-19.52,39.85-14.34,49.57,5,9.36,37.91-4.33,45.51-7.35,3.12-1.23-1.54-25.38-5-24.47-7.62,2-19,7.39-19.38,7.15s1.66-11.56,3.22-22.79C180.15,157.07,173.17,162.13,167.89,171.29Z" style="fill: rgb(235, 148, 129); transform-origin: 176.195px 193.42px;" id="el6jwkev69q2" class="animable"></path><path d="M189.27,191.42s8.53-4.63,13.77-5.67a34.36,34.36,0,0,1,16.36,1.16c5.71,1.82,18.25,10.17,16.47,14.2-1.6,3.65-14-5.53-14-5.53s14.17,7.27,11.43,11.31-16.51-7.44-16.51-7.44,14.39,7.81,10.91,11.52c-2.64,2.81-15.69-6.88-15.69-6.88s12.32,6.79,9.74,9.8c-2.86,3.32-15.47-4.87-15.47-4.87-7.86,6.54-14.27,6.43-18.83,5.82C186.36,214.69,189.27,191.42,189.27,191.42Z" style="fill: rgb(235, 148, 129); transform-origin: 211.624px 200.181px;" id="el2wszfqxt86e" class="animable"></path><path d="M217.14,192.75c1.7.79,3.42,1.58,5,2.53s3.21,1.94,4.73,3a31.87,31.87,0,0,1,5.53,4.8,69,69,0,0,0-10.54-7.4c-1.61-.94-3.18-2-4.8-2.9A0,0,0,0,1,217.14,192.75Z" style="fill: rgb(38, 50, 56); transform-origin: 224.73px 197.915px;" id="elc0cg24fglxl" class="animable"></path><path d="M213.63,198.53c2.12,1.11,4.27,2.13,6.34,3.33s3.92,2.52,5.89,3.85c.16.1,0,.15-.11,0-2-1.25-4-2.25-6-3.49s-4-2.54-6.12-3.69C213.57,198.56,213.6,198.51,213.63,198.53Z" style="fill: rgb(38, 50, 56); transform-origin: 219.761px 202.165px;" id="elaa21q9hads6" class="animable"></path><path d="M209.73,203a52.76,52.76,0,0,1,9.3,5.83c.15.11,0,.16-.15.06-3.06-2-5.44-3.59-9.21-5.78C209.62,203,209.66,202.92,209.73,203Z" style="fill: rgb(38, 50, 56); transform-origin: 214.37px 205.956px;" id="el5wpq68z69bo" class="animable"></path><path d="M199.6,216.13l-.06,0-.93.3-2.35.72c-2,.6-4.76,1.41-7.92,2.26a152.59,152.59,0,0,1-21.91,4.49c-1,.1-2,.18-2.91.22-1.12.05-2.18.05-3.15,0a15.4,15.4,0,0,1-3.06-.44,6.65,6.65,0,0,1-2.66-1.37c-6.24-5.29-.05-21.45,1.06-25.46.3-1,1.37-3.79,2.86-7.27l0-.06h0c.36-.83.74-1.71,1.15-2.61l.36-.83.12-.26c3-6.59,6.86-14.37,9.87-18.54a17,17,0,0,1,4.18-4.4c3-1.94,4.79.5,4.2,8.31-.16,2.1-.38,4.28-.64,6.42,0,.11,0,.23,0,.34-.31,2.58-.66,5.11-1,7.4,0,0,0,.1,0,.14-.66,4.49-1.26,8.05-1.33,9.23a.27.27,0,0,0,0,.09c0,.23,0,.34,0,.33l.13-.05.2-.09c2.08-.91,13.08-6.06,13.74-6.37h0v0l.18.48,0,.08.36,1,.22.61,2.51,6.89.38,1.06.19.52,3.19,8.76.18.49,0,.09,0,.14,1.78,4.87h0l.24.66v0l.63,1.71Z" style="fill: rgb(117, 41, 115); transform-origin: 175.752px 193.202px;" id="elbtzuj749ds" class="animable"></path><path d="M175.48,194.79a29.51,29.51,0,0,0-4,4.11,51.38,51.38,0,0,0-3.31,4.46s.07.06.09,0c1.16-1.46,2.49-2.85,3.74-4.27s2.66-2.76,3.81-4.21C175.84,194.82,175.59,194.71,175.48,194.79Z" style="fill: rgb(38, 50, 56); transform-origin: 171.991px 199.074px;" id="elym3frc82i1" class="animable"></path><path d="M177.84,177.62c-.13,1.38-.3,2.76-.44,4.13l-.5,4.13c-.32,2.74-.72,5.49-1,8.22l0,.51V195h0l0-.06a.33.33,0,0,0-.17-.16l0,0-.1,0h0l.1,0,.23-.09.47-.19,1.89-.83L182,191.9l3.8-1.67,3.83-1.63h0v0l.19.6-.25-.58.05,0c-1.22.66-2.45,1.3-3.68,1.93l-3.72,1.86c-1.24.62-2.49,1.21-3.74,1.8l-1.91.85-.48.21-.26.09-.14,0,0,0h-.1a.86.86,0,0,1-.16,0l-.08,0a.44.44,0,0,1-.19-.19l0-.07v-.07a.35.35,0,0,0,0-.06v-.24l0-.27,0-.53c.32-2.76.74-5.5,1.2-8.23l.71-4.09C177.3,180.34,177.55,179,177.84,177.62Z" style="fill: rgb(38, 50, 56); transform-origin: 182.49px 186.492px;" id="eltunc4wlvp4" class="animable"></path><path d="M189.06,207.19c-1.13-3.16-2.24-6.33-3.49-9.45-.71-1.77-1.41-3.55-2.14-5.32,0-.07-.14,0-.12,0,1,3.22,2,6.44,3.19,9.62s2.27,6.32,3.47,9.46q1,2.67,2.2,5.29s.07,0,.06,0C191.33,213.55,190.2,210.38,189.06,207.19Z" style="fill: rgb(38, 50, 56); transform-origin: 187.77px 204.589px;" id="elblpjgrwaybv" class="animable"></path><path d="M178.49,181a22.61,22.61,0,0,1-.75,2.33,21.42,21.42,0,0,1-1,2.25,24,24,0,0,1,1.75-4.58Z" style="fill: rgb(38, 50, 56); transform-origin: 177.615px 183.29px;" id="el3cf8503i7xc" class="animable"></path></g><g id="freepik--character-1--inject-53" class="animable" style="transform-origin: 397.101px 273.849px;"><path d="M332.57,452.27c2.25.75,66.44.56,68.88-1,.93-.58,1.45-9.94,1.75-21.25.07-2.45-.14-41.84-.14-41.84H361.57l0,25.21v9.09l.22,7.54s-24.54,11.06-27,13.06S330.33,451.53,332.57,452.27Z" style="fill: rgb(235, 148, 129); transform-origin: 367.405px 420.437px;" id="el72yjrw8quxb" class="animable"></path><path d="M332,452.58c2.3.76,68.06.45,70.56-1.15.95-.6,1.89-10.74.94-21.95l-42.4.25s-24.31,11.38-26.86,13.43S329.71,451.82,332,452.58Z" style="fill: rgb(117, 41, 115); transform-origin: 367.443px 441.228px;" id="elec0dx1me16t" class="animable"></path><g id="el5q6qosz5qmd"><path d="M402.57,451.43l-.14.06-.11,0h0c-2.17.62-14.14,1-27.61,1.25l27.79-23.3h1C404.46,440.69,403.52,450.83,402.57,451.43Z" style="opacity: 0.1; transform-origin: 389.306px 441.09px;" class="animable"></path></g><path d="M332.94,450c11-.33,55.51-.59,66.43-.07.09,0,.09.06,0,.07-10.92.56-55.41.46-66.43.18C332.71,450.12,332.71,450,332.94,450Z" style="fill: rgb(38, 50, 56); transform-origin: 366.102px 450.02px;" id="elwa9hn8nwuqf" class="animable"></path><path d="M338.47,440.77a8.91,8.91,0,0,1,6.61,2.66,8.65,8.65,0,0,1,2.49,5.88c0,.06-.13.07-.14,0a10.24,10.24,0,0,0-9-8.4A.07.07,0,0,1,338.47,440.77Z" style="fill: rgb(38, 50, 56); transform-origin: 342.974px 445.063px;" id="elqb2t29uam9i" class="animable"></path><path d="M357.66,430.85c4.41-.08,9.53,1.45,12.29,5,.11.14-.09.29-.22.22a61.21,61.21,0,0,0-12.15-4.73A.28.28,0,0,1,357.66,430.85Z" style="fill: rgb(38, 50, 56); transform-origin: 363.725px 433.467px;" id="elw2eck9idlsa" class="animable"></path><path d="M354.26,432.19c4.41-.08,9.53,1.46,12.29,5.05.11.14-.09.29-.22.22a61.18,61.18,0,0,0-12.15-4.72A.28.28,0,0,1,354.26,432.19Z" style="fill: rgb(38, 50, 56); transform-origin: 360.278px 434.832px;" id="el39isfw7ltze" class="animable"></path><path d="M350.86,433.54c4.41-.08,9.53,1.45,12.29,5,.11.14-.09.29-.22.23a61.21,61.21,0,0,0-12.15-4.73A.28.28,0,0,1,350.86,433.54Z" style="fill: rgb(38, 50, 56); transform-origin: 356.92px 436.16px;" id="el5x7imfgsmp9" class="animable"></path><path d="M347.46,434.88c4.41-.08,9.53,1.45,12.29,5.05.11.14-.09.29-.22.22a60.57,60.57,0,0,0-12.15-4.72A.28.28,0,0,1,347.46,434.88Z" style="fill: rgb(38, 50, 56); transform-origin: 353.478px 437.522px;" id="elnhjnvnmv18s" class="animable"></path><path d="M396.51,439.42c4.95,0,5,7.69,0,7.7S391.55,439.43,396.51,439.42Z" style="fill: rgb(38, 50, 56); transform-origin: 396.508px 443.27px;" id="elqmc8vckn7k" class="animable"></path><path d="M353.22,425.56c2.39,3.07,6,5,9.18,7.14a.54.54,0,0,0,.79-.36c.08,0,.15,0,.14-.13A23.13,23.13,0,0,0,359.27,421c-1.39-1.92-4.21-3.71-6.44-1.85S351.82,423.78,353.22,425.56Zm-.22-3.65c.41-4.8,4.76-1.14,5.73.32a25.06,25.06,0,0,1,1.62,3,69.63,69.63,0,0,1,2.52,6.52c-1.48-1.15-3.05-2.17-4.58-3.27C356.48,427.14,352.77,424.56,353,421.91Z" style="fill: rgb(38, 50, 56); transform-origin: 357.466px 425.567px;" id="elmn84s9kbx3" class="animable"></path><path d="M379,429.33c-.36-2.88-3.65-3.49-6-3a23.12,23.12,0,0,0-10.65,5.47.12.12,0,0,0,0,.19.53.53,0,0,0,.34.8c3.77.57,7.74,1.65,11.58,1C376.54,433.44,379.33,432.05,379,429.33Zm-10.37,3.12c-1.87-.23-3.71-.56-5.58-.72a68.87,68.87,0,0,1,6.29-3.06,24.17,24.17,0,0,1,3.21-1.07c1.7-.4,7.38-.13,4.41,3.67C375.32,433.37,370.84,432.73,368.62,432.45Z" style="fill: rgb(38, 50, 56); transform-origin: 370.648px 430.084px;" id="eljx7qor3l3i" class="animable"></path><path d="M425.92,196.54s-21.9,110-23.44,118.12c-.36,1.85,1,108.54,1,108.54H361.62s-2.85-94.24-.89-110.46,26.77-116.2,26.77-116.2Z" style="fill: rgb(38, 50, 56); transform-origin: 392.981px 309.87px;" id="elrpkydk2tqn" class="animable"></path><path d="M425.93,196.55s-10.66,53.53-17.64,88.66l-20.8-88.66Z" style="fill: rgb(55, 71, 79); transform-origin: 406.71px 240.88px;" id="elumolqjkj9z" class="animable"></path><path d="M400.19,414.79c-2.37-.36-20.43-1.1-35.53-.33-.1,0-.1.17,0,.18,4.93.52,32.74.74,35.51.36C400.26,415,400.3,414.81,400.19,414.79Z" style="fill: rgb(55, 71, 79); transform-origin: 382.421px 414.657px;" id="elhi91bxe5yyl" class="animable"></path><path d="M396.53,410.88c-.33-13-.83-39.06-1-52.06,0-14.66-.64-29.37.08-44,4.25-21,13.1-63.78,17.45-84.46l5.44-25.47-5,25.56c-3.9,19.8-12.53,62.84-16.64,82.95a18,18,0,0,0-.48,3.16c-.22,5.39-.18,10.82-.2,16.23,0,16.66.23,60.91.31,78.1Z" style="fill: rgb(55, 71, 79); transform-origin: 406.884px 307.89px;" id="el4tgf92ob04m" class="animable"></path><path d="M387.73,452.73c2.25.72,66.43-.09,68.86-1.66.92-.59,1.35-9.95,1.55-21.27,0-2.44-2.55-41.61-2.55-41.61l-39.48.18.65,41.83s-24.44,11.31-26.91,13.32S385.48,452,387.73,452.73Z" style="fill: rgb(235, 148, 129); transform-origin: 422.434px 420.593px;" id="el2zt5g40ie7x" class="animable"></path><path d="M386.82,452.58c2.3.76,68.06.45,70.56-1.15,1-.6,1.89-10.74.94-21.95l-42.4.25s-24.3,11.38-26.86,13.43S384.52,451.82,386.82,452.58Z" style="fill: rgb(117, 41, 115); transform-origin: 422.265px 441.228px;" id="ele2jlp172r5l" class="animable"></path><path d="M387.75,450c11-.33,55.51-.59,66.43-.07.09,0,.09.06,0,.07-10.92.56-55.41.46-66.43.18C387.52,450.12,387.52,450,387.75,450Z" style="fill: rgb(38, 50, 56); transform-origin: 420.912px 450.02px;" id="elf81z4ojxase" class="animable"></path><path d="M393.28,440.77a8.91,8.91,0,0,1,6.61,2.66,8.6,8.6,0,0,1,2.49,5.88c0,.06-.12.07-.13,0a10.25,10.25,0,0,0-9-8.4A.07.07,0,0,1,393.28,440.77Z" style="fill: rgb(38, 50, 56); transform-origin: 397.787px 445.063px;" id="elk5un3pbac6" class="animable"></path><path d="M412.47,430.85c4.41-.08,9.54,1.45,12.29,5,.11.14-.09.29-.22.22a61.36,61.36,0,0,0-12.14-4.73A.27.27,0,0,1,412.47,430.85Z" style="fill: rgb(38, 50, 56); transform-origin: 418.532px 433.467px;" id="ellrg936n11c8" class="animable"></path><path d="M409.07,432.19c4.41-.08,9.54,1.46,12.29,5.05.11.14-.09.29-.22.22A61.33,61.33,0,0,0,409,432.74.28.28,0,0,1,409.07,432.19Z" style="fill: rgb(38, 50, 56); transform-origin: 415.093px 434.832px;" id="elx9mq7fhxb1" class="animable"></path><path d="M405.67,433.54c4.41-.08,9.54,1.45,12.29,5,.11.14-.09.29-.22.23a61.36,61.36,0,0,0-12.14-4.73A.27.27,0,0,1,405.67,433.54Z" style="fill: rgb(38, 50, 56); transform-origin: 411.726px 436.16px;" id="elck9lxev7zn" class="animable"></path><path d="M402.27,434.88c4.41-.08,9.54,1.45,12.29,5.05.11.14-.09.29-.22.22a60.72,60.72,0,0,0-12.14-4.72A.28.28,0,0,1,402.27,434.88Z" style="fill: rgb(38, 50, 56); transform-origin: 408.293px 437.522px;" id="ela4mlwtoj8ll" class="animable"></path><path d="M451.32,439.42c4.95,0,5,7.69,0,7.7S446.37,439.43,451.32,439.42Z" style="fill: rgb(38, 50, 56); transform-origin: 451.32px 443.27px;" id="elnjmhh6kbzfq" class="animable"></path><path d="M408,425.56c2.39,3.07,6,5,9.18,7.14a.55.55,0,0,0,.8-.36c.07,0,.14,0,.13-.13A23.13,23.13,0,0,0,414.08,421c-1.39-1.92-4.21-3.71-6.43-1.85S406.63,423.78,408,425.56Zm-.22-3.65c.41-4.8,4.76-1.14,5.73.32a23.7,23.7,0,0,1,1.62,3,69.63,69.63,0,0,1,2.52,6.52c-1.48-1.15-3.05-2.17-4.58-3.27C411.29,427.14,407.58,424.56,407.81,421.91Z" style="fill: rgb(38, 50, 56); transform-origin: 412.265px 425.567px;" id="eluie3skz5acr" class="animable"></path><path d="M433.8,429.33c-.36-2.88-3.65-3.49-6-3a23.12,23.12,0,0,0-10.65,5.47.12.12,0,0,0,0,.19.54.54,0,0,0,.34.8c3.78.57,7.74,1.65,11.58,1C431.35,433.44,434.14,432.05,433.8,429.33Zm-10.37,3.12c-1.86-.23-3.71-.56-5.58-.72,2.08-1.06,4.11-2.21,6.29-3.06a24.17,24.17,0,0,1,3.21-1.07c1.7-.4,7.38-.13,4.41,3.67C430.13,433.37,425.65,432.73,423.43,432.45Z" style="fill: rgb(38, 50, 56); transform-origin: 425.452px 430.084px;" id="el66zh7jjr1ya" class="animable"></path><path d="M416.66,424.06h41.48S453,352,452.23,339.87c-.38-6.18-4.31-73.27-7.9-103a56.87,56.87,0,0,0-5.91-40.38h-51s.8,22,6.65,36.67a89.49,89.49,0,0,1,13.28,5.92s4.56,91.63,5.38,107.36C413.81,366.47,416.66,424.06,416.66,424.06Z" style="fill: rgb(38, 50, 56); transform-origin: 422.78px 310.275px;" id="elftdszju0vz9" class="animable"></path><path d="M454.1,415.86c-2.37-.36-20.43-1.1-35.53-.34-.1,0-.09.17,0,.19,4.93.51,32.74.73,35.51.36C454.17,416.06,454.21,415.88,454.1,415.86Z" style="fill: rgb(55, 71, 79); transform-origin: 436.333px 415.722px;" id="elquc5i041kuh" class="animable"></path><path d="M393.74,233a93.13,93.13,0,0,1,14.85,5.81.16.16,0,0,1-.11.31c-5-1.78-10.08-3.47-15-5.52A.32.32,0,0,1,393.74,233Z" style="fill: rgb(55, 71, 79); transform-origin: 400.991px 236.051px;" id="elm84jmorxwuq" class="animable"></path><path d="M390.17,199.82c0-.17.3-.22.31,0A160.09,160.09,0,0,0,392.32,216c.38,2.49,3.27,16.2,7.55,14.92.71-.22,1-1,1.08-2.06a17.18,17.18,0,0,0-.84-4.21c-.66-2.87-1.23-5.75-1.67-8.66a79.46,79.46,0,0,1-.85-16.38.14.14,0,0,1,.28,0,150.59,150.59,0,0,0,2.74,22.51c.78,3.57,2.93,8.87-.8,9.66s-6.85-8.11-7.48-10.56A83.44,83.44,0,0,1,390.17,199.82Z" style="fill: rgb(55, 71, 79); transform-origin: 396.036px 215.65px;" id="elxxxw3yzios" class="animable"></path><path d="M399.78,231.27a23.52,23.52,0,0,1,1.15,2.8,6.57,6.57,0,0,1,.56,2.33c0,.16-.21.18-.3.09a8.42,8.42,0,0,1-1.15-2.23c-.39-.87-.79-1.73-1.15-2.61A.48.48,0,0,1,399.78,231.27Z" style="fill: rgb(55, 71, 79); transform-origin: 400.171px 233.76px;" id="el5vc0rnlp6zk" class="animable"></path><path d="M417,203.17c0-.11.17-.09.18,0,.57,4.17.9,8.5,2.91,12.28,1.85,3.48,5.07,5.71,8.59,7.28a63.27,63.27,0,0,0,6.25,2.31.13.13,0,0,1,0,.25c-4-.83-8-1.76-11.5-4-3.71-2.39-5.62-6.23-6.23-10.52A37.23,37.23,0,0,1,417,203.17Z" style="fill: rgb(55, 71, 79); transform-origin: 425.958px 214.192px;" id="eluwdslrp6l8" class="animable"></path><path d="M433.94,199.45c3.94,11.43,7.69,24.7,4.5,36.72,4,56.63,8.17,117.69,12.12,174.71-3.69-42-7.3-88.74-9.94-131.06q-1.46-21.88-2.78-43.78a32.37,32.37,0,0,0,1.3-9.2c0-9.34-2.21-18.59-5.2-27.39Z" style="fill: rgb(55, 71, 79); transform-origin: 442.25px 305.165px;" id="elcuvairsvign" class="animable"></path><path d="M431.07,131.94c1.74,4.43,4.21,8.45,5.59,13A30,30,0,0,1,437.82,158c-2.46,16.05-23.36,25.68-38,20.69-7-2.38-13.13-8.08-15-15.38-2.29-9,2.49-17.56,5.39-25.73a41.71,41.71,0,0,0,2.36-14.25c0-4.25-.26-8.57.6-12.76.62-3,2.66-11.69,13.67-15.16,7.91-2.49,15.92,1.83,19.61,9.34C430.71,113.51,427.65,123.17,431.07,131.94Z" style="fill: rgb(38, 50, 56); transform-origin: 411.149px 137.357px;" id="elwdwzxlwzqca" class="animable"></path><path d="M393.39,133.25c-3.41,7.32-7.9,14.8-9.22,22.87-1.09,6.7.72,13.95,6.55,17.93a0,0,0,0,0,0-.08c-6.12-4.74-6.88-12.94-5.16-20,1.76-7.23,6-13.51,8.13-20.58A.19.19,0,0,0,393.39,133.25Z" style="fill: rgb(38, 50, 56); transform-origin: 388.78px 153.632px;" id="el4einu5p2qvv" class="animable"></path><path d="M391.85,132.82c-2.59,9.61-10.49,17.17-11,27.38,0,.12.18.15.19,0,.67-10.2,9.45-17.44,11-27.38C392.06,132.73,391.88,132.71,391.85,132.82Z" style="fill: rgb(38, 50, 56); transform-origin: 386.446px 146.523px;" id="el960g4roiai" class="animable"></path><path d="M431.63,131.78a33.05,33.05,0,0,1-3-11.28.19.19,0,0,0-.37,0c-.92,14.1,15.22,24.66,10.93,39.24,0,.1.12.17.15.06,2.06-6,.46-12-2.24-17.57C435.38,138.69,433.29,135.35,431.63,131.78Z" style="fill: rgb(38, 50, 56); transform-origin: 434.25px 140.105px;" id="el4pnzb0ayy3j" class="animable"></path><path d="M428.36,118.4c0-.27-.42-.19-.41.07a31.62,31.62,0,0,0,5,14.82c1.4,2.19,3.12,4.16,4.48,6.38,1.49,2.44,2.63,5.06,3.89,7.62,0,.06.12,0,.1,0-1.63-4.85-4.18-8.72-7.09-12.85A34.65,34.65,0,0,1,428.36,118.4Z" style="fill: rgb(38, 50, 56); transform-origin: 434.686px 132.775px;" id="el1k38vf1cdom" class="animable"></path><path d="M398.68,141.57c-20.51,18.08-39.57,37.91-41.15,48.13-2.2,14.15,6.47,18.17,10.37,18.25,10.63.23,30.42-42.64,37.33-59C411.93,133,403.18,137.6,398.68,141.57Z" style="fill: rgb(235, 148, 129); transform-origin: 382.423px 172.852px;" id="el2hnti9bb2l2" class="animable"></path><path d="M390.11,179.64l-2.61,16.9,51.95,0s-4.51-37.61-16.27-55c-5.68-8.39-13.26-7.21-18.74-2-1.39,1.33-15,20.47-16.92,28.54A12.93,12.93,0,0,0,390.11,179.64Z" style="fill: rgb(117, 41, 115); transform-origin: 413.275px 165.988px;" id="eldq54sqw202" class="animable"></path><path d="M398.41,178.1a45,45,0,0,1,6.42,1.51c1,.34,2.06.73,3.07,1.14.51.21,1,.4,1.53.58a7.29,7.29,0,0,0,1.65.43c.05,0,0,.08,0,.08a12.34,12.34,0,0,1-1.6-.14,13,13,0,0,1-1.52-.39c-1.06-.34-2.1-.73-3.15-1.08-2.13-.7-4.25-1.4-6.43-1.95C398.27,178.26,398.31,178.09,398.41,178.1Z" style="fill: rgb(38, 50, 56); transform-origin: 404.708px 179.97px;" id="elwkrre31xnpb" class="animable"></path><path d="M392.88,179.68a47,47,0,0,1,5.44.1c.91.07,1.8.2,2.7.35l1.28.23c.46.09.92.25,1.39.33.05,0,0,.09,0,.08-.44-.07-.9-.06-1.35-.1l-1.35-.13-2.7-.25c-1.81-.18-3.61-.35-5.42-.47C392.77,179.82,392.78,179.68,392.88,179.68Z" style="fill: rgb(38, 50, 56); transform-origin: 398.256px 180.207px;" id="elqai068zguy" class="animable"></path><path d="M417.43,139.25c-.26,1-5.35,7.61-10.06,7.28-1.54-.12-1.3-8.52-1.3-8.52l-.13-.62-1.73-8.74,10.37-6.31,1.49-.83s.32,2.42.69,5.44c0,.14,0,.28.05.43s.05.33.06.49c.07.45.12.91.17,1.37s.08.69.11,1.06.07.73.11,1.1A56.4,56.4,0,0,1,417.43,139.25Z" style="fill: rgb(235, 148, 129); transform-origin: 410.852px 134.026px;" id="elnc82z2oljla" class="animable"></path><path d="M416.76,127a17.9,17.9,0,0,1-10.82,10.44l-1.73-8.74,10.37-6.31,1.49-.83S416.39,123.93,416.76,127Z" style="fill: rgb(38, 50, 56); transform-origin: 410.485px 129.5px;" id="elq3f1axjh44m" class="animable"></path><path d="M392,117c.63,15.63,10.07,17,13.43,16.88,3.06-.13,13.46-.95,14.45-16.56S413.38,97.08,406.37,97,391.35,101.39,392,117Z" style="fill: rgb(235, 148, 129); transform-origin: 405.966px 115.443px;" id="el8uz5onjl3jm" class="animable"></path><path d="M395,115.22c.36-.1.67-.24,1-.37a1.76,1.76,0,0,0,1-.57.56.56,0,0,0-.09-.67,1.4,1.4,0,0,0-1.4-.14,2,2,0,0,0-1.16.88A.6.6,0,0,0,395,115.22Z" style="fill: rgb(38, 50, 56); transform-origin: 395.676px 114.288px;" id="elck5xx0u7ihd" class="animable"></path><path d="M405.7,114.17a9.81,9.81,0,0,1-1.08-.08,1.81,1.81,0,0,1-1.09-.29.57.57,0,0,1-.09-.68,1.39,1.39,0,0,1,1.31-.5,2,2,0,0,1,1.36.54A.6.6,0,0,1,405.7,114.17Z" style="fill: rgb(38, 50, 56); transform-origin: 404.819px 113.386px;" id="elzb5mt3p1z9j" class="animable"></path><path d="M403.76,118.31s.09,0,.09.09c.08,1.06.36,2.27,1.36,2.51,0,0,0,.06,0,.06C404,120.94,403.67,119.34,403.76,118.31Z" style="fill: rgb(38, 50, 56); transform-origin: 404.478px 119.64px;" id="el1v941j5i2q1" class="animable"></path><path d="M404.58,117.1c1.69-.32,2.21,3.09.64,3.38S403.16,117.37,404.58,117.1Z" style="fill: rgb(38, 50, 56); transform-origin: 404.95px 118.788px;" id="elbqntjn3g7vl" class="animable"></path><path d="M405.28,117.18c.32.15.67.44,1,.42s.68-.42.9-.81c0,0,.06,0,.06,0a1.27,1.27,0,0,1-.72,1.57c-.63.18-1.17-.33-1.44-1C405.07,117.32,405.14,117.12,405.28,117.18Z" style="fill: rgb(38, 50, 56); transform-origin: 406.191px 117.593px;" id="el651jzw4st6o" class="animable"></path><path d="M397.61,118.58s-.07.06-.06.1c.2,1,.25,2.29-.64,2.79,0,0,0,.07,0,.06C398.06,121.18,398,119.54,397.61,118.58Z" style="fill: rgb(38, 50, 56); transform-origin: 397.387px 120.055px;" id="elbxzc5fixax4" class="animable"></path><path d="M396.5,117.63c-1.72.14-1.31,3.56.28,3.43S397.93,117.51,396.5,117.63Z" style="fill: rgb(38, 50, 56); transform-origin: 396.587px 119.345px;" id="el6h7q5rcrh5t" class="animable"></path><path d="M395.81,117.94c-.25.21-.48.57-.8.63s-.69-.26-1-.59c0,0-.05,0-.05,0,.06.66.36,1.31,1,1.36s.94-.56,1-1.23C396,118,395.91,117.85,395.81,117.94Z" style="fill: rgb(38, 50, 56); transform-origin: 394.965px 118.628px;" id="elndicmq01kk" class="animable"></path><path d="M404.5,126.84c-.2.3-.39.68-.76.79a2.77,2.77,0,0,1-1.18,0s-.06,0,0,.06A1.43,1.43,0,0,0,404,128a1.13,1.13,0,0,0,.64-1.09C404.61,126.81,404.53,126.8,404.5,126.84Z" style="fill: rgb(38, 50, 56); transform-origin: 403.588px 127.447px;" id="el467p36t9884" class="animable"></path><path d="M400.17,125.69A4.37,4.37,0,0,0,402,126.9a1.94,1.94,0,0,0,1.19,0c.84-.3.8-1.08.59-1.75a4.86,4.86,0,0,0-.46-1A5.63,5.63,0,0,1,400.17,125.69Z" style="fill: rgb(38, 50, 56); transform-origin: 402.039px 125.572px;" id="elex0biw669wj" class="animable"></path><path d="M402,126.9a1.94,1.94,0,0,0,1.19,0c.84-.3.8-1.08.59-1.75A2,2,0,0,0,402,126.9Z" style="fill: rgb(255, 156, 189); transform-origin: 402.954px 126.072px;" id="elwsgv1qazl39" class="animable"></path><path d="M399.55,123.64s0,1.61.1,2.35c0,.07.2.08.45.06,0,0,0,0,0,0a3.55,3.55,0,0,0,3.25-1.81c.05-.08-.06-.14-.12-.08a5.42,5.42,0,0,1-3.1,1.38c-.08-.2.08-2.76,0-2.75a6.36,6.36,0,0,0-1.63.62c-.11-3.35.33-6.69.18-10a.1.1,0,0,0-.2,0,54.38,54.38,0,0,0-.66,10.79C397.81,124.58,399.27,123.81,399.55,123.64Z" style="fill: rgb(38, 50, 56); transform-origin: 400.571px 119.685px;" id="elsbw59itufim" class="animable"></path><path d="M418.76,117.72c-3.25.29-4.16-7.11-4.16-7.11s-5.59-.45-8.24-3.94c0,0,1.85,3.06,4.13,4.17.39.18-10.86.22-12.8-8.2,0,0-.76,8.59-5.66,10.84-.23.1,0-7.74,1.4-9.71a16.57,16.57,0,0,1,2.9-3.08,16,16,0,0,1,11.36-4.23c6.94.28,12.16,7,13,9.89C422.3,112,420.3,117.57,418.76,117.72Z" style="fill: rgb(38, 50, 56); transform-origin: 406.619px 107.09px;" id="eldl588xjz2w" class="animable"></path><path d="M410.16,111.06c-6.1.36-11.33-3-12.48-9.15a.14.14,0,0,0-.27,0c-.17,6.38,7.11,10.28,12.81,9.23C410.36,111.14,410.3,111.05,410.16,111.06Z" style="fill: rgb(38, 50, 56); transform-origin: 403.853px 106.559px;" id="eldbq9mlaq71m" class="animable"></path><path d="M418.71,117.37c-3.46-1.34-4.33-4.59-4.93-7.92a.09.09,0,0,0-.17,0c.29,3.29,1.31,7.26,5,8.19A.15.15,0,0,0,418.71,117.37Z" style="fill: rgb(38, 50, 56); transform-origin: 416.19px 113.515px;" id="eleum3xgb56qm" class="animable"></path><path d="M397.51,101.36s-.06,0-.07,0c-.38,3.55.08,9.43-4.28,10.78a.09.09,0,0,0,0,.18C397.51,111.41,398.35,104.91,397.51,101.36Z" style="fill: rgb(38, 50, 56); transform-origin: 395.436px 106.84px;" id="elat7271mr7h" class="animable"></path><path d="M416.76,117.66s2.77-5.27,5.12-4.34.7,8.27-1.76,9.56a2.64,2.64,0,0,1-3.69-1Z" style="fill: rgb(235, 148, 129); transform-origin: 419.723px 118.236px;" id="elqg7oeakc3s" class="animable"></path><path d="M421.35,115.41s.06,0,0,.07c-1.71,1-2.45,2.76-2.89,4.58a1.46,1.46,0,0,1,2.11-.67c.05,0,0,.11,0,.1a1.65,1.65,0,0,0-1.71.79,8.54,8.54,0,0,0-.67,1.55c-.06.17-.36.12-.33-.07v-.05C417.52,119.41,418.91,116,421.35,115.41Z" style="fill: rgb(38, 50, 56); transform-origin: 419.593px 118.672px;" id="el4mcab3pk092" class="animable"></path><path d="M418.44,136.76a12.12,12.12,0,0,0-5.82-1.19c-2.24.07-6.8,2.77-6.8,2.77s-5.65,20.67-2.33,20.85C407.61,159.41,418.92,137.6,418.44,136.76Z" style="fill: rgb(235, 148, 129); transform-origin: 410.45px 147.374px;" id="elzufnqptvf7c" class="animable"></path><path d="M425.21,139.81c19.09,15,37.86,40.92,38,55.42.13,14.31-10.6,9.48-14.12,7-7.52-5.41-21.15-34.52-27.35-50.75S420.49,136.1,425.21,139.81Z" style="fill: rgb(235, 148, 129); transform-origin: 441.023px 171.314px;" id="el7i980wg034h" class="animable"></path><path d="M445.45,196.88c-1-1.81-2-3.59-3-5.41l-3-5.41c-2-3.62-4-7.22-5.87-10.87s-3.87-7.27-5.76-10.93q-1.43-2.73-2.77-5.51c-.94-1.84-1.78-3.71-2.65-5.59a109.67,109.67,0,0,0,4.73,11.44c1.75,3.74,3.66,7.4,5.57,11.06s4,7.23,6.08,10.78S443.08,193.5,445.45,196.88Z" style="fill: rgb(38, 50, 56); transform-origin: 433.925px 175.02px;" id="elbb09geulynt" class="animable"></path><path d="M424.44,158a17.46,17.46,0,0,0-1.18-1.87c-.22-.29-.42-.59-.65-.88s-.44-.58-.7-.87a5.76,5.76,0,0,0,.94,2A6.28,6.28,0,0,0,424.44,158Z" style="fill: rgb(38, 50, 56); transform-origin: 423.175px 156.19px;" id="elmwxqzo1huqf" class="animable"></path><path d="M363.51,168.75c1-6.72,3-16.09,5.44-18s11.78-8.83,14.44-9.72,14.51-5.24,16.66-4c1.73,1-.38,5.57-6,7.69A82.47,82.47,0,0,0,385.1,149c-1.45.61-5,5.23-4,7.3.54,1.22,4.06,2.69,6.27,1.72s2.81-5.32,5.34-7.34,7-1.73,7.21-.53-1.23,1.74-3.54,5.78c-1.49,2.6-1.66,8.88-5,13.34a77.61,77.61,0,0,0-4.65,8.24Z" style="fill: rgb(235, 148, 129); transform-origin: 382.074px 157.16px;" id="elu7w9u5lbbx" class="animable"></path><path d="M395,148.8a4.44,4.44,0,0,0,2.2-1,1.77,1.77,0,0,0,.51-.9,1.75,1.75,0,0,0,0-.56.86.86,0,0,0-.21-.54c-.05,0,0-.08,0,0a2.69,2.69,0,0,0,.2.27,2.1,2.1,0,0,1,.13.26,1.47,1.47,0,0,1,.08.55,1.77,1.77,0,0,1-.45,1.11,3,3,0,0,1-2.53.88S395,148.81,395,148.8Z" style="fill: rgb(38, 50, 56); transform-origin: 396.421px 147.33px;" id="elts5c4ceea3i" class="animable"></path><path d="M369,150.72c2.17-3.33,7.71-9.33,13.15-11.35,3.68-1.37,16.22,4.91,15.83,7.31s-2.55,2.39-5.73,2c-1.16-.15-7.28-2.42-8.34-1.14-1.53,1.83-3.51,8.15-3.51,8.15Z" style="fill: rgb(235, 148, 129); transform-origin: 383.494px 147.433px;" id="elewroaovj0xf" class="animable"></path><path d="M397.63,145.74c-1.53-2.6-4.94-4-8.34-5.13-.05,0-.08.06,0,.08.87.28,6.39,2.9,8.33,5.09C397.61,145.8,397.64,145.76,397.63,145.74Z" style="fill: rgb(38, 50, 56); transform-origin: 393.436px 143.198px;" id="el8k64kcc2jg" class="animable"></path><path d="M369,150.72c2.17-3.33,7.71-9.33,13.15-11.35,3.68-1.37,13.57,6.6,13.18,9s-3.49,2.57-6.9,1.34c-1.1-.4-4.78-3-5.84-1.77-1.52,1.84-5.24,6.4-5.24,6.4Z" style="fill: rgb(235, 148, 129); transform-origin: 382.171px 146.776px;" id="el7kofgjduhec" class="animable"></path><path d="M379.44,151.52c.35-.53.47-.71.83-1.23s.72-1,1.12-1.53a4.92,4.92,0,0,1,1.14-1.18,2.49,2.49,0,0,1,1.52-.28,8.51,8.51,0,0,1,3.24,1.48c1.12.65,3.44,1.72,5.23,1.55a3.46,3.46,0,0,0,1.41-.36,2.28,2.28,0,0,0,.85-.67c.79-1.3-.17-2.81-1.14-3.88a22.7,22.7,0,0,0-6.68-4.66c-.58-.3-1.18-.58-1.77-.86a5.3,5.3,0,0,0-2.16-.64c-1.24,0-3.28,1.21-3.92,1.59-.05,0-.08,0,0-.08.77-.47,2.68-2,4.67-1.87a6.2,6.2,0,0,1,2.08.72c.69.31,1.38.64,2.05,1a27.46,27.46,0,0,1,3.79,2.29,12,12,0,0,1,3.09,3,3.47,3.47,0,0,1,.18,3.57,3,3,0,0,1-2.26,1.18,6,6,0,0,1-1.58,0,24.61,24.61,0,0,1-3.42-1c-1.08-.45-2.05-1.19-3.16-1.54a2.12,2.12,0,0,0-1.62.09,5.74,5.74,0,0,0-1.22,1.09,16.54,16.54,0,0,0-2,2.38C379.46,151.81,379.3,151.74,379.44,151.52Z" style="fill: rgb(38, 50, 56); transform-origin: 387.22px 145.319px;" id="el6zujz8ij4we" class="animable"></path><path d="M367.33,153.64c.8-1.59,2.19-8.16,3.49-10.17s7.16-8.93,9.87-8.6c3.4.42-.21,6.52-2,9s-1.55,6.81-1.55,6.81Z" style="fill: rgb(235, 148, 129); transform-origin: 374.713px 144.249px;" id="elvaee9ee5azq" class="animable"></path><path d="M381.2,139.73c-.64.8-1.21,1.68-1.77,2.53a19.49,19.49,0,0,0-1.55,2.49,9.07,9.07,0,0,0-.7,2.8,13.37,13.37,0,0,0-.07,1.42c0,.52,0,1,0,1.56a0,0,0,0,0,.09,0,22.26,22.26,0,0,1,.4-2.82,11.4,11.4,0,0,1,.88-2.8c.81-1.78,2-3.36,2.83-5.12C381.35,139.73,381.25,139.68,381.2,139.73Z" style="fill: rgb(38, 50, 56); transform-origin: 379.215px 145.12px;" id="elf388r8sbvsv" class="animable"></path><path d="M377.15,151.43a9.77,9.77,0,0,0,.82,4.79,16.78,16.78,0,0,0,1.07,2.22,17.54,17.54,0,0,0,1.39,2,18.51,18.51,0,0,1,2.43,4,19.51,19.51,0,0,1,1.26,4.58,12.68,12.68,0,0,0-.55-4.84,15.11,15.11,0,0,0-2.34-4.33,22.44,22.44,0,0,1-2.52-4A14.62,14.62,0,0,1,377.15,151.43Z" style="fill: rgb(38, 50, 56); transform-origin: 380.639px 160.225px;" id="elc3pl9ntitj" class="animable"></path><path d="M368.89,207.46c6.64-.89,11-12,18.55-31.52,1.33-3.42-16-24.49-18.37-21.34-3,4-11,26-11.82,32C355.6,198.45,361.14,208.51,368.89,207.46Z" style="fill: rgb(235, 148, 129); transform-origin: 372.235px 180.908px;" id="el92ra4ntesjh" class="animable"></path><path d="M387.44,175.94c-2.23,7.46-4.94,14.91-9,21.58,3.05-6.91,5.92-14.69,9-21.58Z" style="fill: rgb(38, 50, 56); transform-origin: 382.94px 186.73px;" id="eltrvaqhrzr8f" class="animable"></path><polygon points="418.82 184.54 384.37 187.1 374.24 138.82 408.69 136.27 418.82 184.54" style="fill: rgb(38, 50, 56); transform-origin: 396.53px 161.685px;" id="el0x04cx5jc7u" class="animable"></polygon><polygon points="417.13 184.67 382.68 187.22 372.55 138.95 407 136.39 417.13 184.67" style="fill: rgb(69, 90, 100); transform-origin: 394.84px 161.805px;" id="elofoqk3geut" class="animable"></polygon><path d="M390.16,160a3.73,3.73,0,0,0,3.89,3.08,3,3,0,0,0,2.81-3.58,3.75,3.75,0,0,0-3.89-3.08A3,3,0,0,0,390.16,160Z" style="fill: rgb(255, 255, 255); transform-origin: 393.51px 159.75px;" id="elpvqdcs1f3r" class="animable"></path><path d="M457.82,205.17c-6.4.88-13.26-1.23-33.94-16.33-2.87-2.09,6.44-26.25,9.61-24.18,4,2.61,18.93,13.62,19.92,14.56C461.76,187.17,462.16,204.58,457.82,205.17Z" style="fill: rgb(235, 148, 129); transform-origin: 441.943px 184.937px;" id="elsfg2rxhr4v" class="animable"></path><path d="M440.88,172s-5.89-8.26-10.33-11.65a35.77,35.77,0,0,0-15.91-6.43c-6.19-.92-21.81,1.16-22,5.77-.17,4.16,15.69,1.23,15.69,1.23s-16.66.32-15.94,5.38,18.93.6,18.93.6-17.11.71-15.54,5.81c1.18,3.85,17.91.75,17.91.75s-14.71.71-13.66,4.72c1.16,4.43,16.77,2.54,16.77,2.54,4.38,9.75,10.66,12.5,15.22,14C433.12,195.07,440.88,172,440.88,172Z" style="fill: rgb(235, 148, 129); transform-origin: 416.624px 174.215px;" id="el4v0uhzvrair" class="animable"></path><path d="M414.08,160.41c-1.95,0-3.94-.08-5.89.06s-3.91.35-5.84.67a34.42,34.42,0,0,0-7.4,2c4.35-1.35,11.34-2,13.3-2.1s3.89-.38,5.84-.53C414.14,160.48,414.13,160.41,414.08,160.41Z" style="fill: rgb(38, 50, 56); transform-origin: 404.536px 161.764px;" id="elsyroh2ap20k" class="animable"></path><path d="M414.72,167.46c-2.5.06-5,0-7.49.21s-4.83.56-7.3.91c-.19,0-.11.12.08.1,2.48-.25,4.79-.28,7.28-.5s5-.53,7.44-.66C414.77,167.52,414.76,167.46,414.72,167.46Z" style="fill: rgb(38, 50, 56); transform-origin: 407.288px 168.071px;" id="elei9r4hm0i7" class="animable"></path><path d="M416.36,173.41a55.68,55.68,0,0,0-11.43,1.21c-.19,0-.07.14.12.12,3.79-.48,6.76-.87,11.3-1.2C416.43,173.54,416.44,173.41,416.36,173.41Z" style="fill: rgb(38, 50, 56); transform-origin: 410.625px 174.076px;" id="el52oz5rosk1c" class="animable"></path><path d="M424,156.54A33.09,33.09,0,0,1,437.45,167a157.45,157.45,0,0,1,14.83,10.91c3.73,2.85,5.94,7.19,7.19,11.64a38.79,38.79,0,0,1,1,4.48c-1.15-4.39-2.62-8.86-5.42-12.47-5.22-5.53-11.86-9.59-18-14a36.35,36.35,0,0,0-13.1-11Z" style="fill: rgb(38, 50, 56); transform-origin: 442.21px 175.285px;" id="el90l424z5sm" class="animable"></path></g><defs>     <filter id="active" height="200%">         <feMorphology in="SourceAlpha" result="DILATED" operator="dilate" radius="2"></feMorphology>                <feFlood flood-color="#32DFEC" flood-opacity="1" result="PINK"></feFlood>        <feComposite in="PINK" in2="DILATED" operator="in" result="OUTLINE"></feComposite>        <feMerge>            <feMergeNode in="OUTLINE"></feMergeNode>            <feMergeNode in="SourceGraphic"></feMergeNode>        </feMerge>    </filter>    <filter id="hover" height="200%">        <feMorphology in="SourceAlpha" result="DILATED" operator="dilate" radius="2"></feMorphology>                <feFlood flood-color="#ff0000" flood-opacity="0.5" result="PINK"></feFlood>        <feComposite in="PINK" in2="DILATED" operator="in" result="OUTLINE"></feComposite>        <feMerge>            <feMergeNode in="OUTLINE"></feMergeNode>            <feMergeNode in="SourceGraphic"></feMergeNode>        </feMerge>            <feColorMatrix type="matrix" values="0   0   0   0   0                0   1   0   0   0                0   0   0   0   0                0   0   0   1   0 "></feColorMatrix>    </filter></defs></svg>